<svg width="164" height="34" viewBox="0 0 164 34" fill="none" xmlns="http://www.w3.org/2000/svg">
<g style="mix-blend-mode:difference" clip-path="url(#clip0_3595_1938)">
<path d="M19.176 25.236C20.3044 25.2466 21.4237 25.0312 22.4694 24.6025C23.4628 24.1914 24.3672 23.5883 25.1319 22.827C25.9067 22.0498 26.5118 21.1173 26.9083 20.0895C27.3362 18.9793 27.5491 17.7964 27.5352 16.605C27.5506 15.4199 27.3376 14.2431 26.9083 13.1401C26.5061 12.1153 25.9017 11.1839 25.1319 10.4026C24.3725 9.6337 23.4668 9.02838 22.4694 8.62319C20.351 7.80547 18.0087 7.80547 15.8903 8.62319C14.8917 9.0283 13.9847 9.6336 13.2239 10.4026C10.5149 12.8585 6.44746 12.0881 6.0295 13.1401C5.60446 14.2466 5.39677 15.4261 5.41804 16.6128C5.40421 17.8042 5.61705 18.9871 6.04498 20.0973C6.46294 21.1532 10.0775 21.2119 13.2394 22.8348C14.0055 23.5962 14.9112 24.1993 15.9058 24.6103C16.9445 25.0342 18.0558 25.2469 19.176 25.236ZM19.176 30.1636C17.3218 30.1788 15.4821 29.8322 13.7579 29.1429C12.1309 28.4959 10.6477 27.5277 9.39519 26.2949C8.14265 25.062 7.14581 23.5893 6.46294 21.9627C5.76634 20.3359 -0.0309587 21.5091 1.48261e-06 16.6128C0.0309617 11.7166 5.7586 12.9054 6.44746 11.2629C7.10977 9.64427 8.09369 8.18014 9.33837 6.96112C10.5951 5.72977 12.0799 4.76098 13.7076 4.11019C15.4487 3.41933 17.3056 3.07538 19.176 3.09731C21.0468 3.07787 22.9038 3.42448 24.6443 4.11801C26.275 4.76972 27.7634 5.73831 29.0252 6.96894C30.265 8.19123 31.2471 9.65458 31.9122 11.2708C32.6044 12.964 32.9519 14.7809 32.9339 16.6128C32.9634 19.3052 32.1833 21.9431 30.6969 24.1777C29.2105 26.4123 27.0877 28.1383 24.6095 29.1272C22.8815 29.8239 21.0364 30.1758 19.176 30.1636Z" fill="white"/>
<path d="M46.9937 23.4645C48.1171 23.4878 49.2233 23.1822 50.1787 22.5845C51.1031 21.9904 51.8549 21.1592 52.3575 20.1755C52.9031 19.1035 53.1783 17.912 53.1586 16.7067C53.1832 15.5103 52.9174 14.3261 52.3846 13.2574C51.889 12.2784 51.1366 11.4558 50.2097 10.8797C49.494 10.4441 48.6979 10.1606 47.87 10.0466C47.0421 9.93257 46.2 9.99046 45.395 10.2167C44.5901 10.4429 43.8393 10.8328 43.1885 11.3623C42.5378 11.8919 42.0008 12.55 41.6105 13.2965C41.0569 14.3535 40.776 15.5344 40.7939 16.7302C40.7738 17.9374 41.0546 19.1302 41.6105 20.199C42.1323 21.1915 42.909 22.0236 43.859 22.608C44.8042 23.1839 45.8901 23.4806 46.9937 23.4645ZM37.5392 33.2609V7.28571H40.7088V11.3685L40.256 10.5238C40.9662 9.38195 41.9621 8.44977 43.143 7.82149C44.4187 7.15779 45.8379 6.82581 47.2723 6.85553C48.9324 6.82664 50.5684 7.25928 52.0016 8.1062C53.4349 8.95313 54.6103 10.1818 55.3994 11.6579C56.2266 13.2091 56.6463 14.9488 56.6185 16.7106C56.65 18.4828 56.2302 20.2335 55.3994 21.7946C54.617 23.2442 53.4686 24.4586 52.0712 25.3142C50.6278 26.1934 48.969 26.6446 47.284 26.6165C45.8348 26.6363 44.4037 26.2908 43.1198 25.6115C41.8992 24.965 40.9078 23.9509 40.2831 22.7097L40.8055 22.1465V33.2609H37.5392Z" fill="white"/>
<path d="M59.1146 26.2215V7.28571H62.2842V10.735L61.9204 10.207C62.3145 9.20336 63.0316 8.36302 63.956 7.82148C64.9712 7.26984 66.1129 6.99996 67.2649 7.03934H68.4259V10.1366H66.7889C66.1937 10.1081 65.5992 10.2061 65.0439 10.4244C64.4886 10.6427 63.9848 10.9763 63.5651 11.4037C62.7653 12.2484 62.3654 13.4334 62.3654 14.9586V26.2215H59.1146Z" fill="white"/>
<path d="M78.4802 23.4645C79.5923 23.4845 80.6864 23.1789 81.6304 22.5845C82.5633 21.9816 83.3259 21.145 83.8441 20.156C84.4108 19.085 84.6984 17.8858 84.68 16.6715C84.698 15.4815 84.4156 14.3065 83.8596 13.2574C83.3385 12.2748 82.5695 11.4491 81.6304 10.864C80.6731 10.2832 79.5775 9.97634 78.4609 9.97634C77.3442 9.97634 76.2486 10.2832 75.2913 10.864C74.3515 11.4651 73.5832 12.3036 73.0622 13.2965C72.5073 14.3459 72.2263 15.5209 72.2456 16.7106C72.2291 17.9112 72.5098 19.0969 73.0622 20.1599C73.5758 21.1571 74.3459 21.996 75.2913 22.5885C76.2512 23.1788 77.3567 23.4825 78.4802 23.4645ZM78.4802 26.6322C76.7822 26.6553 75.1089 26.2199 73.6332 25.3708C72.1575 24.5217 70.933 23.2898 70.0861 21.8024C69.2117 20.2558 68.7665 18.4994 68.7974 16.7184C68.7617 14.9394 69.2002 13.1834 70.0668 11.6345C70.8977 10.1694 72.1 8.95446 73.5498 8.11479C75.0559 7.24952 76.7634 6.80666 78.4957 6.83207C80.2088 6.80656 81.8976 7.244 83.3874 8.09915C84.8376 8.93837 86.04 10.1534 86.8704 11.6188C87.7433 13.1661 88.1884 14.922 88.1591 16.7028C88.1905 18.4468 87.7596 20.1676 86.911 21.6867C86.0624 23.2057 84.8271 24.4676 83.3332 25.3416C81.8634 26.2149 80.1852 26.6653 78.4802 26.6439V26.6322Z" fill="white"/>
<path d="M90.6011 4.2236V0H93.8403V4.2236H90.6011ZM87.3968 34C87.1878 34 86.9298 33.9883 86.6227 33.9648C86.3765 33.9496 86.1319 33.9143 85.8913 33.8592V30.8949C86.3409 30.9641 86.7949 30.9994 87.2497 31.0005C88.1248 31.035 88.9814 30.7395 89.653 30.1714C90.2799 29.6213 90.5934 28.7948 90.5934 27.692V7.28571H93.8326V27.6998C93.8714 28.9052 93.5822 30.0982 92.9967 31.1491C92.4554 32.0722 91.6554 32.8126 90.6979 33.2765C89.6669 33.77 88.5374 34.0176 87.3968 34Z" fill="white"/>
<path d="M105.787 26.6439C104.079 26.672 102.396 26.2212 100.926 25.3416C99.5096 24.4848 98.3488 23.2564 97.5672 21.7867C96.7435 20.2165 96.3293 18.4601 96.3636 16.6832C96.3278 14.9129 96.7408 13.1628 97.5633 11.5993C98.3233 10.1655 99.4482 8.96258 100.822 8.11479C102.076 7.39206 103.478 6.97001 104.919 6.88119C106.361 6.79237 107.803 7.03914 109.135 7.60249C110.188 8.07446 111.132 8.76458 111.906 9.62825C112.668 10.4771 113.26 11.4681 113.647 12.5457C114.041 13.6343 114.242 14.7849 114.239 15.9441C114.239 16.2022 114.239 16.4877 114.22 16.8045C114.209 17.1192 114.169 17.4321 114.1 17.7391H98.6856V14.9234H112.231L110.683 16.1553C110.903 15.0591 110.781 13.921 110.334 12.8976C109.914 11.9507 109.228 11.1493 108.361 10.5931C107.494 10.0369 106.485 9.75032 105.458 9.76904C104.399 9.75931 103.359 10.058 102.463 10.6294C101.548 11.2163 100.817 12.0529 100.354 13.0423C99.8335 14.1989 99.6239 15.4736 99.746 16.738C99.6057 17.9872 99.8233 19.2509 100.373 20.3789C100.87 21.388 101.644 22.2311 102.602 22.8075C103.559 23.3864 104.656 23.6856 105.772 23.6717C106.892 23.7098 107.997 23.403 108.941 22.7918C109.79 22.2166 110.504 21.4596 111.031 20.5744L113.74 21.9471C113.34 22.8547 112.752 23.6644 112.014 24.3209C111.208 25.0564 110.276 25.6358 109.262 26.0299C108.153 26.4537 106.973 26.662 105.787 26.6439Z" fill="white"/>
<path d="M125.501 26.6439C123.759 26.6809 122.04 26.2302 120.536 25.3416C119.121 24.4874 117.964 23.258 117.192 21.7867C116.375 20.2212 115.962 18.4725 115.992 16.7028C115.962 14.9331 116.375 13.1843 117.192 11.6188C117.959 10.1528 119.117 8.93343 120.536 8.09915C122.048 7.2327 123.763 6.79493 125.501 6.83207C126.669 6.82593 127.828 7.04631 128.914 7.48125C129.953 7.89902 130.908 8.50171 131.736 9.26064C132.535 9.99168 133.146 10.9084 133.516 11.9317L130.625 13.3747C130.214 12.3745 129.516 11.5218 128.62 10.9266C127.704 10.3095 126.625 9.98521 125.524 9.99586C124.419 9.97317 123.331 10.2718 122.39 10.8562C121.472 11.4461 120.727 12.2722 120.23 13.2496C119.684 14.3214 119.409 15.5131 119.429 16.7184C119.409 17.9237 119.684 19.1153 120.23 20.1873C120.73 21.1669 121.474 21.9974 122.39 22.5963C123.327 23.1921 124.417 23.498 125.524 23.4762C126.627 23.4959 127.709 23.1694 128.62 22.5415C129.511 21.9273 130.207 21.0664 130.625 20.0621L133.516 21.5404C133.134 22.542 132.526 23.4393 131.739 24.1606C130.915 24.9329 129.96 25.5478 128.918 25.9752C127.834 26.4244 126.673 26.6517 125.501 26.6439Z" fill="white"/>
<path d="M143.648 26.4327C141.836 26.4327 140.428 25.9087 139.433 24.8684C138.438 23.8282 137.935 22.3303 137.935 20.3828V10.4182H134.557V7.28963H135.219C135.586 7.30932 135.952 7.24974 136.295 7.11487C136.637 6.98 136.947 6.77293 137.204 6.50748C137.705 5.945 137.967 5.20643 137.935 4.45043V2.92133H141.175V7.28571H145.389V10.4143H141.175V20.3085C141.165 20.8689 141.265 21.4258 141.469 21.9471C141.658 22.4294 142.011 22.8284 142.463 23.0734C143.037 23.3573 143.671 23.4918 144.309 23.4645C144.495 23.4645 144.704 23.4527 144.936 23.4293L145.598 23.3589V26.2802C145.266 26.3549 144.928 26.402 144.588 26.421C144.216 26.4288 143.903 26.4327 143.648 26.4327Z" fill="white"/>
<path d="M154.758 26.6439C153.03 26.6821 151.33 26.1913 149.882 25.236C148.512 24.3289 147.472 22.9941 146.922 21.4348L149.499 20.2029C149.996 21.2609 150.756 22.1705 151.705 22.8426C152.599 23.4889 153.671 23.8338 154.77 23.8282C155.672 23.8557 156.559 23.5913 157.301 23.0734C157.616 22.8614 157.873 22.5733 158.049 22.2352C158.226 21.8971 158.316 21.5198 158.311 21.1376C158.336 20.6496 158.173 20.1707 157.858 19.8001C157.537 19.4663 157.156 19.197 156.736 19.0062C156.345 18.8145 155.937 18.6612 155.517 18.5487L152.661 17.7391C151.015 17.2464 149.793 16.5477 148.996 15.643C148.221 14.7563 147.807 13.6068 147.835 12.4244C147.811 11.3788 148.109 10.3514 148.686 9.48355C149.272 8.6373 150.075 7.96811 151.008 7.54773C152.044 7.08068 153.168 6.84714 154.302 6.86335C155.875 6.84348 157.421 7.27615 158.76 8.11088C160.064 8.92267 161.049 10.1667 161.546 11.6305L158.899 12.8976C158.526 11.9432 157.876 11.1252 157.034 10.5512C156.207 9.98561 155.23 9.68571 154.232 9.69082C153.416 9.64648 152.612 9.90209 151.968 10.4104C151.699 10.6345 151.484 10.9175 151.339 11.2379C151.194 11.5584 151.124 11.908 151.132 12.2602C151.116 12.7243 151.264 13.1791 151.55 13.5429C151.824 13.8779 152.169 14.1454 152.56 14.3251C152.918 14.4996 153.291 14.6409 153.675 14.7474L156.771 15.6625C158.125 16.0024 159.357 16.7223 160.323 17.7391C161.156 18.6608 161.608 19.8701 161.585 21.118C161.596 22.1345 161.298 23.1299 160.73 23.9689C160.131 24.832 159.305 25.5092 158.346 25.9243C157.215 26.4205 155.991 26.6659 154.758 26.6439Z" fill="white"/>
<path d="M162.22 8.58408V7.62986H161.93V7.41868H162.75V7.62986H162.46V8.58408H162.22Z" fill="white"/>
<path d="M162.789 8.58408V7.41868H163.025L163.454 7.99747H163.346L163.768 7.41868H163.996V8.58408H163.756V7.68461L163.853 7.70807L163.412 8.28686H163.381L162.951 7.70807L163.029 7.68461V8.58408H162.789Z" fill="white"/>
</g>
<defs>
<clipPath id="clip0_3595_1938">
<rect width="164" height="34" fill="white"/>
</clipPath>
</defs>
</svg>
