<svg width="1487" height="1487" viewBox="0 0 1487 1487" fill="none" xmlns="http://www.w3.org/2000/svg">
<mask id="mask0_3_1537" style="mask-type:alpha" maskUnits="userSpaceOnUse" x="0" y="0" width="1487" height="1487">
<rect width="1487" height="1487" fill="#D9D9D9"/>
</mask>
<g mask="url(#mask0_3_1537)">
<g opacity="0.08">
<mask id="mask1_3_1537" style="mask-type:luminance" maskUnits="userSpaceOnUse" x="-290" y="-275" width="2065" height="2039">
<path d="M1308 -274.349L-289.001 202.951L177.338 1763.27L1774.34 1285.97L1308 -274.349Z" fill="white"/>
</mask>
<g mask="url(#mask1_3_1537)">
<mask id="mask2_3_1537" style="mask-type:luminance" maskUnits="userSpaceOnUse" x="-291" y="-275" width="2066" height="2039">
<path d="M1308.11 -274.375L-290.017 203.263L176.321 1763.59L1774.45 1285.95L1308.11 -274.375Z" fill="white"/>
</mask>
<g mask="url(#mask2_3_1537)">
<path d="M8.00003 169.51C14.7403 167.559 21.0278 164.292 26.5 159.9C31.7028 155.705 36.0371 150.535 39.26 144.68C42.4943 138.723 44.4493 132.156 45 125.4C45.6001 118.125 44.7989 110.803 42.64 103.83C40.6394 96.8107 37.2903 90.2485 32.78 84.51C28.5822 79.1987 23.3456 74.7991 17.39 71.58C11.5146 68.3905 5.04862 66.4371 -1.60996 65.84C-15.724 64.7676 -29.736 68.9527 -40.95 77.59C-46.1984 81.7476 -50.5379 86.938 -53.7 92.84C-65.62 112.17 -91.15 114.84 -91.78 121.74C-92.3595 129.012 -91.5206 136.328 -89.31 143.28C-87.2884 150.291 -83.9413 156.849 -79.45 162.6C-75.12 168.09 -53.38 161.97 -31.75 165.89C-25.8491 169.016 -19.3954 170.963 -12.75 171.62C-5.76183 172.3 1.29188 171.583 8.00003 169.51ZM16.69 198.56C5.63362 201.978 -5.98059 203.221 -17.51 202.22C-28.3271 201.311 -38.8534 198.249 -48.4703 193.214C-58.0871 188.179 -66.6005 181.272 -73.51 172.9C-80.59 164.37 -113.06 181.71 -121.46 152.9C-129.86 124.09 -93.66 120.73 -92.46 109.9C-91.3488 99.1689 -88.0691 88.7754 -82.82 79.35C-77.4924 69.8525 -70.3584 61.4887 -61.82 54.73C-43.2333 40.4237 -20.0191 33.4833 3.37002 35.24C14.2184 36.1981 24.774 39.2727 34.44 44.29C43.9864 49.2832 52.4279 56.1501 59.26 64.48C66.4014 73.2688 71.697 83.4076 74.83 94.29C79.762 110.128 79.7708 127.09 74.8552 142.934C69.9395 158.777 60.3309 172.755 47.3 183.02C38.1952 190.143 27.8021 195.443 16.69 198.63V198.56Z" fill="#1D58FF"/>
<path d="M274.28 89.93C281.02 87.9847 287.305 84.718 292.77 80.32C297.971 76.1226 302.305 70.9532 305.53 65.1C308.771 59.147 310.736 52.5843 311.3 45.83C311.896 38.5553 311.095 31.2337 308.94 24.26C306.939 17.2376 303.59 10.6721 299.08 4.92997C294.882 -0.378666 289.645 -4.77501 283.69 -7.99004C277.815 -11.183 271.349 -13.1398 264.69 -13.74C250.575 -14.8115 236.562 -10.6226 225.35 -1.98003C220.105 2.17712 215.766 7.36346 212.6 13.26C200.69 32.6 175.16 35.26 174.53 42.16C173.953 49.4256 174.792 56.734 177 63.68C179.023 70.733 182.38 77.3323 186.89 83.12C191.23 88.6 212.96 82.49 234.59 86.41C240.493 89.5307 246.946 91.4734 253.59 92.13C260.569 92.7722 267.606 92.0175 274.29 89.91L274.28 89.93ZM283 118.99C271.935 122.419 260.311 123.672 248.77 122.68C237.953 121.78 227.425 118.724 217.807 113.692C208.19 108.66 199.677 101.754 192.77 93.38C185.71 84.94 153.24 102.28 144.77 73.33C136.3 44.38 172.56 41.16 173.77 30.33C174.861 19.5632 178.142 9.13304 183.41 -0.32003C188.74 -9.81007 195.874 -18.1668 204.41 -24.92C223.019 -39.2055 246.249 -46.1142 269.64 -44.32C280.489 -43.3834 291.049 -40.3255 300.72 -35.32C310.262 -30.3377 318.701 -23.4808 325.53 -15.16C332.681 -6.36453 337.98 3.78527 341.11 14.68C344.462 25.4335 345.578 36.759 344.39 47.96C343.139 58.782 339.766 69.251 334.464 78.7676C329.162 88.2842 322.034 96.6615 313.49 103.42C304.421 110.518 294.069 115.801 283 118.98V118.99Z" fill="#1D58FF"/>
<path d="M540.54 10.35C547.281 8.40601 553.57 5.14291 559.04 0.749969C564.241 -3.45142 568.574 -8.62411 571.8 -14.48C575.039 -20.4337 577.004 -26.996 577.57 -33.75C578.162 -41.0254 577.357 -48.3467 575.2 -55.32C573.199 -62.3371 569.854 -68.8987 565.35 -74.64C561.163 -79.9463 555.941 -84.3455 550 -87.57C544.124 -90.7601 537.659 -92.7167 531 -93.32C516.923 -94.3905 502.949 -90.212 491.77 -81.59C486.511 -77.4294 482.165 -72.2318 479 -66.32C467.09 -46.98 441.56 -44.32 440.92 -37.41C440.302 -30.1376 441.107 -22.8146 443.29 -15.85C445.3 -8.79208 448.659 -2.19042 453.18 3.58997C457.51 9.06996 479.25 2.95998 500.88 6.87997C506.781 10.0063 513.235 11.9526 519.88 12.61C526.86 13.2492 533.897 12.4911 540.58 10.38L540.54 10.35ZM549.23 39.41C538.174 42.8284 526.559 44.0713 515.03 43.07C504.213 42.1611 493.687 39.0991 484.07 34.064C474.453 29.0289 465.94 22.1222 459.03 13.75C451.97 5.29997 419.51 22.6499 411.03 -6.30005C402.55 -35.25 438.82 -38.48 440.03 -49.3C441.132 -60.0286 444.408 -70.4202 449.66 -79.84C455 -89.3467 462.151 -97.7144 470.71 -104.47C489.305 -118.759 512.515 -125.691 535.9 -123.94C546.745 -122.997 557.3 -119.94 566.97 -114.94C576.516 -109.947 584.958 -103.08 591.79 -94.75C598.931 -85.9612 604.227 -75.8224 607.36 -64.94C612.292 -49.1018 612.301 -32.1397 607.385 -16.2964C602.47 -0.45314 592.861 13.5251 579.83 23.7899C570.725 30.9129 560.332 36.2131 549.22 39.4L549.23 39.41Z" fill="#1D58FF"/>
<path d="M-66.8299 404.33C-60.0855 402.377 -53.7991 399.096 -48.3399 394.68C-43.1348 390.487 -38.8001 385.317 -35.5799 379.46C-32.3365 373.508 -30.3713 366.945 -29.8099 360.19C-29.2177 352.935 -30.0187 345.634 -32.17 338.68C-34.1592 331.656 -37.498 325.087 -41.9999 319.34C-46.2002 314.031 -51.4363 309.632 -57.3899 306.41C-63.2669 303.223 -69.7318 301.266 -76.3899 300.66C-90.4628 299.597 -104.432 303.775 -115.61 312.39C-120.885 316.552 -125.246 321.757 -128.42 327.68C-140.34 347.02 -165.87 349.68 -166.5 356.59C-167.121 363.862 -166.319 371.185 -164.14 378.15C-162.122 385.205 -158.764 391.805 -154.25 397.59C-149.91 403.07 -128.18 396.96 -106.55 400.88C-100.648 404.004 -94.1949 405.95 -87.5499 406.61C-80.5604 407.236 -73.5162 406.461 -66.8299 404.33ZM-58.1499 433.39C-69.2048 436.799 -80.8139 438.042 -92.3399 437.05C-103.157 436.108 -113.68 433.024 -123.294 427.976C-132.908 422.929 -141.422 416.019 -148.34 407.65C-155.4 399.21 -187.86 416.56 -196.17 387.65C-204.48 358.74 -168.38 355.47 -167.17 344.65C-166.088 333.93 -162.842 323.54 -157.63 314.11C-152.299 304.62 -145.165 296.264 -136.63 289.51C-118.032 275.209 -94.8171 268.26 -71.4199 269.99C-60.5744 270.947 -50.0219 274.021 -40.3599 279.04C-30.8115 284.03 -22.3694 290.897 -15.5399 299.23C-8.40187 308.016 -3.11577 318.157 6.10352e-05 329.04C4.91171 344.868 4.90697 361.814 -0.0135803 377.64C-4.93413 393.466 -14.539 407.427 -27.5599 417.68C-36.6485 424.84 -47.0359 430.174 -58.1499 433.39Z" fill="#1D58FF"/>
<path d="M199.43 324.76C206.172 322.813 212.46 319.546 217.93 315.15C223.128 310.952 227.458 305.783 230.68 299.93C233.921 293.984 235.89 287.428 236.46 280.68C237.053 273.405 236.248 266.083 234.09 259.11C232.089 252.088 228.74 245.522 224.23 239.78C220.034 234.469 214.797 230.072 208.84 226.86C202.965 223.667 196.499 221.71 189.84 221.11C175.765 220.041 161.792 224.216 150.61 232.83C145.362 236.988 141.022 242.178 137.86 248.08C125.86 267.31 100.42 269.96 99.7501 276.87C99.1243 284.183 99.9363 291.549 102.14 298.55C104.154 305.591 107.501 312.181 112 317.96C116.34 323.45 138.07 317.33 159.7 321.25C165.602 324.374 172.055 326.32 178.7 326.98C185.679 327.618 192.715 326.863 199.4 324.76H199.43ZM208.12 353.82C197.065 357.23 185.455 358.469 173.93 357.47C163.09 356.551 152.542 353.48 142.903 348.437C133.264 343.395 124.726 336.481 117.79 328.1C110.73 319.66 78.2601 337.01 69.7901 308.1C61.3201 279.19 97.7001 276.01 98.8801 265.03C100.004 254.333 103.284 243.975 108.52 234.58C113.848 225.089 120.982 216.732 129.52 209.98C148.105 195.669 171.32 188.729 194.71 190.49C205.559 191.427 216.119 194.485 225.79 199.49C235.367 204.471 243.837 211.339 250.69 219.68C257.809 228.483 263.078 238.632 266.18 249.52C271.108 265.362 271.115 282.325 266.199 298.171C261.284 314.016 251.678 327.998 238.65 338.27C229.566 345.365 219.201 350.644 208.12 353.82Z" fill="#1D58FF"/>
<path d="M465.7 245.18C472.441 243.239 478.728 239.972 484.19 235.57C489.413 231.382 493.765 226.211 497 220.35C500.244 214.398 502.209 207.835 502.77 201.08C503.37 193.805 502.569 186.483 500.41 179.51C498.409 172.491 495.06 165.928 490.55 160.19C486.35 154.881 481.114 150.482 475.16 147.26C469.283 144.073 462.818 142.116 456.16 141.51C442.084 140.448 428.113 144.626 416.93 153.24C411.659 157.392 407.292 162.578 404.1 168.48C392.19 187.82 366.66 190.48 366.03 197.38C365.409 204.655 366.211 211.981 368.39 218.95C370.411 226.004 373.768 232.604 378.28 238.39C382.62 243.87 404.35 237.76 425.98 241.68C431.883 244.801 438.336 246.743 444.98 247.4C451.966 248.05 459.011 247.295 465.7 245.18ZM474.38 274.24C463.325 277.649 451.716 278.892 440.19 277.9C429.364 276.964 418.832 273.883 409.209 268.835C399.586 263.788 391.064 256.875 384.14 248.5C377.08 240.06 344.62 257.41 336.14 228.5C327.66 199.59 363.94 196.32 365.14 185.5C366.268 174.798 369.554 164.436 374.8 155.04C380.13 145.55 387.264 137.193 395.8 130.44C414.393 116.138 437.609 109.202 461 110.96C471.849 111.897 482.409 114.954 492.08 119.96C501.659 124.921 510.136 131.768 517 140.09C524.143 148.878 529.439 159.017 532.57 169.9C537.509 185.749 537.517 202.724 532.594 218.578C527.67 234.432 518.048 248.416 505 258.68C495.889 265.787 485.492 271.071 474.38 274.24Z" fill="#1D58FF"/>
<path d="M732 165.61C738.742 163.663 745.03 160.396 750.5 156C755.698 151.8 760.031 146.631 763.26 140.78C766.495 134.825 768.46 128.263 769.03 121.51C769.623 114.235 768.818 106.913 766.66 99.94C764.663 92.9181 761.318 86.3525 756.81 80.61C752.611 75.2987 747.37 70.902 741.41 67.69C735.535 64.4971 729.069 62.5402 722.41 61.94C708.312 60.8621 694.315 65.0445 683.12 73.68C677.872 77.8376 673.532 83.028 670.37 88.93C658.37 108.16 632.93 110.81 632.26 117.72C631.634 125.033 632.446 132.399 634.65 139.4C636.671 146.451 640.028 153.047 644.54 158.83C648.88 164.32 670.61 158.2 692.24 162.12C698.142 165.244 704.595 167.19 711.24 167.85C718.219 168.488 725.255 167.733 731.94 165.63L732 165.61ZM740.69 194.67C729.635 198.08 718.025 199.319 706.5 198.32C695.66 197.401 685.112 194.33 675.473 189.287C665.834 184.244 657.296 177.331 650.36 168.95C643.3 160.51 610.83 177.86 602.36 148.95C593.89 120.04 630.27 116.86 631.45 105.88C632.574 95.1832 635.854 84.8249 641.09 75.43C646.421 65.9402 653.554 57.5836 662.09 50.83C680.679 36.5205 703.897 29.5799 727.29 31.34C738.139 32.2769 748.699 35.3347 758.37 40.34C767.918 45.3271 776.36 52.191 783.19 60.52C790.311 69.3211 795.58 79.4711 798.68 90.36C803.617 106.201 803.628 123.167 798.712 139.015C793.796 154.862 784.185 168.844 771.15 179.11C762.076 186.209 751.721 191.495 740.65 194.68L740.69 194.67Z" fill="#1D58FF"/>
<path d="M998.23 86.03C1005.01 84.0897 1011.34 80.812 1016.83 76.39C1022.03 72.1926 1026.36 67.0232 1029.59 61.17C1032.83 55.2176 1034.8 48.6546 1035.36 41.9C1035.92 34.6281 1035.08 27.3165 1032.89 20.36C1030.89 13.3384 1027.54 6.77324 1023.03 1.02997C1018.83 -4.27378 1013.59 -8.6692 1007.64 -11.89C1001.76 -15.0775 995.298 -17.034 988.64 -17.64C974.564 -18.7019 960.593 -14.5243 949.41 -5.91003C944.165 -1.75288 939.826 3.43347 936.66 9.32996C924.75 28.67 899.22 31.3299 898.59 38.2299C897.969 45.505 898.771 52.8313 900.95 59.8C902.973 66.853 906.33 73.4523 910.84 79.24C915.18 84.72 936.91 78.61 958.54 82.53C964.443 85.6507 970.896 87.5934 977.54 88.25C984.516 88.8957 991.55 88.1409 998.23 86.03ZM1006.91 115.09C995.856 118.501 984.245 119.74 972.72 118.74C961.903 117.802 951.38 114.72 941.766 109.674C932.151 104.629 923.637 97.7195 916.72 89.35C909.66 80.91 877.2 98.26 868.72 69.35C860.24 40.44 896.51 37.17 897.72 26.35C898.848 15.6481 902.134 5.28593 907.38 -4.11004C912.71 -13.6001 919.844 -21.9568 928.38 -28.71C946.973 -43.0117 970.189 -49.9482 993.58 -48.19C1004.43 -47.2534 1014.99 -44.1955 1024.66 -39.19C1034.21 -34.2 1042.65 -27.3326 1049.48 -19C1056.62 -10.2124 1061.92 -0.0732498 1065.05 10.81C1069.99 26.6483 1070 43.6128 1065.09 59.4587C1060.17 75.3045 1050.56 89.2849 1037.53 99.55C1028.42 106.653 1018.02 111.93 1006.91 115.09Z" fill="#1D58FF"/>
<path d="M1264.49 6.45996C1271.27 4.51994 1277.6 1.24231 1283.1 -3.18002C1288.3 -7.37906 1292.63 -12.5524 1295.85 -18.41C1299.1 -24.3612 1301.07 -30.9245 1301.63 -37.68C1302.18 -44.9491 1301.34 -52.2566 1299.15 -59.21C1297.15 -66.2323 1293.8 -72.7979 1289.29 -78.54C1285.09 -83.8508 1279.86 -88.2476 1273.9 -91.46C1268.03 -94.6529 1261.56 -96.6098 1254.9 -97.21C1240.83 -98.2785 1226.85 -94.1041 1215.67 -85.49C1210.42 -81.3324 1206.08 -76.142 1202.92 -70.24C1190.92 -51.01 1165.49 -48.36 1164.81 -41.45C1164.18 -34.1367 1165 -26.7715 1167.2 -19.77C1169.22 -12.717 1172.58 -6.11771 1177.09 -0.33004C1181.43 5.14996 1203.16 -0.960037 1224.79 2.95996C1230.69 6.08069 1237.15 8.02344 1243.79 8.67996C1250.77 9.32216 1257.81 8.56749 1264.5 6.45996H1264.49ZM1273.18 35.52C1262.13 38.9297 1250.52 40.1692 1238.99 39.17C1228.15 38.2509 1217.6 35.1802 1207.96 30.1373C1198.32 25.0945 1189.79 18.1806 1182.85 9.79996C1175.79 1.35995 1143.32 18.71 1134.85 -10.2C1126.38 -39.11 1162.8 -42.32 1164 -53.32C1165.12 -64.0169 1168.4 -74.3751 1173.64 -83.77C1178.97 -93.2614 1186.1 -101.618 1194.64 -108.37C1213.22 -122.682 1236.44 -129.62 1259.83 -127.85C1270.68 -126.913 1281.24 -123.856 1290.91 -118.85C1300.46 -113.863 1308.9 -106.999 1315.73 -98.67C1322.85 -89.8638 1328.12 -79.711 1331.22 -68.82C1336.15 -52.9798 1336.15 -36.0182 1331.24 -20.1747C1326.32 -4.33119 1316.72 9.64899 1303.69 19.92C1294.62 27.0303 1284.26 32.3268 1273.18 35.52Z" fill="#1D58FF"/>
<path d="M124.59 559.58C131.329 557.638 137.615 554.375 143.08 549.98C148.283 545.781 152.617 540.608 155.84 534.75C159.083 528.798 161.049 522.235 161.61 515.48C162.21 508.167 161.399 500.807 159.22 493.8C157.215 486.782 153.867 480.221 149.36 474.48C145.17 469.173 139.944 464.773 134 461.55C128.125 458.359 121.659 456.405 115 455.81C100.925 454.739 86.9509 458.913 75.77 467.53C70.5201 471.688 66.1747 476.874 63 482.77C51.09 502.11 25.56 504.77 24.92 511.68C24.3025 518.991 25.1177 526.352 27.32 533.35C29.3383 540.405 32.6961 547.005 37.21 552.79C41.55 558.28 63.28 552.16 84.91 556.08C90.8119 559.204 97.265 561.15 103.91 561.81C110.89 562.449 117.927 561.691 124.61 559.58H124.59ZM133.27 588.68C122.217 592.099 110.606 593.342 99.08 592.34C88.2456 591.403 77.7064 588.318 68.0777 583.263C58.449 578.208 49.9239 571.286 43 562.9C35.94 554.46 3.48002 571.81 -4.99998 542.9C-13.48 513.99 22.8 510.72 24 499.9C25.128 489.198 28.4142 478.836 33.66 469.44C38.9853 459.941 46.1196 451.577 54.66 444.82C73.2745 430.449 96.5503 423.477 120 425.25C130.842 426.193 141.394 429.25 151.06 434.25C160.608 439.24 169.051 446.107 175.88 454.44C183.012 463.202 188.301 473.314 191.43 484.17C196.356 500.01 196.361 516.972 191.446 532.815C186.531 548.659 176.926 562.639 163.9 572.91C154.807 580.099 144.404 585.455 133.27 588.68Z" fill="#1D58FF"/>
<path d="M390.86 480.01C397.601 478.069 403.888 474.802 409.35 470.4C414.55 466.202 418.884 461.033 422.11 455.18C425.352 449.228 427.317 442.665 427.88 435.91C428.483 428.596 427.668 421.235 425.48 414.23C423.478 407.208 420.129 400.643 415.62 394.9C411.424 389.59 406.187 385.193 400.23 381.98C394.354 378.79 387.889 376.833 381.23 376.23C367.154 375.165 353.181 379.343 342 387.96C336.75 392.112 332.41 397.299 329.25 403.2C317.34 422.54 291.81 425.2 291.17 432.1C290.545 439.378 291.343 446.708 293.52 453.68C295.532 460.737 298.891 467.338 303.41 473.12C307.74 478.6 329.48 472.49 351.11 476.41C357.011 479.536 363.465 481.483 370.11 482.14C377.096 482.821 384.147 482.1 390.85 480.02L390.86 480.01ZM399.54 509.07C388.483 512.467 376.873 513.693 365.35 512.68C354.524 511.748 343.992 508.67 334.368 503.624C324.745 498.578 316.223 491.665 309.3 483.29C302.24 474.85 269.78 492.2 261.3 463.29C252.82 434.38 289.09 431.11 290.3 420.29C291.433 409.571 294.734 399.194 300 389.79C305.33 380.3 312.464 371.943 321 365.19C339.591 350.869 362.818 343.921 386.22 345.68C397.069 346.617 407.629 349.675 417.3 354.68C426.842 359.662 435.281 366.519 442.11 374.84C449.236 383.604 454.522 393.716 457.65 404.57C462.588 420.408 462.601 437.373 457.687 453.219C452.773 469.065 443.163 483.045 430.13 493.31C421.048 500.491 410.659 505.843 399.54 509.07Z" fill="#1D58FF"/>
<path d="M657.12 400.43C663.859 398.488 670.145 395.225 675.61 390.83C680.813 386.631 685.148 381.458 688.37 375.6C691.613 369.648 693.579 363.085 694.14 356.33C694.736 349.027 693.925 341.677 691.75 334.68C689.745 327.662 686.397 321.101 681.89 315.36C677.689 310.048 672.449 305.649 666.49 302.43C660.615 299.239 654.149 297.285 647.49 296.69C633.415 295.619 619.441 299.793 608.26 308.41C603.017 312.57 598.679 317.755 595.51 323.65C583.6 342.99 558.07 345.65 557.43 352.56C556.817 359.832 557.622 367.154 559.8 374.12C561.818 381.175 565.176 387.775 569.69 393.56C574.03 399.05 595.76 392.93 617.39 396.85C623.291 399.975 629.745 401.921 636.39 402.58C643.374 403.25 650.422 402.52 657.12 400.43ZM665.8 429.49C654.746 432.904 643.136 434.147 631.61 433.15C620.784 432.214 610.252 429.133 600.629 424.085C591.006 419.038 582.484 412.125 575.56 403.75C568.5 395.31 536.04 412.66 527.56 383.75C519.08 354.84 555.36 351.57 556.56 340.75C557.688 330.048 560.974 319.686 566.22 310.29C571.545 300.791 578.68 292.427 587.22 285.67C605.809 271.361 629.028 264.42 652.42 266.18C663.265 267.138 673.818 270.213 683.48 275.23C693.029 280.22 701.471 287.087 708.3 295.42C715.432 304.182 720.721 314.294 723.85 325.15C728.776 340.99 728.781 357.952 723.866 373.795C718.951 389.639 709.346 403.619 696.32 413.89C687.246 421.006 676.883 426.303 665.8 429.49Z" fill="#1D58FF"/>
<path d="M923.38 320.86C930.124 318.919 936.414 315.652 941.88 311.25C947.082 307.057 951.413 301.886 954.63 296.03C957.875 290.078 959.844 283.515 960.41 276.76C961.007 269.446 960.192 262.086 958.01 255.08C956.007 248.058 952.659 241.493 948.15 235.75C943.949 230.444 938.713 226.048 932.76 222.83C926.884 219.641 920.418 217.685 913.76 217.08C899.687 216.017 885.718 220.195 874.54 228.81C869.29 232.962 864.95 238.149 861.79 244.05C849.88 263.39 824.34 266.05 823.71 272.95C823.089 280.225 823.89 287.551 826.07 294.52C828.093 301.573 831.45 308.172 835.96 313.96C840.3 319.44 862.03 313.33 883.66 317.25C889.562 320.371 896.016 322.313 902.66 322.97C909.642 323.649 916.688 322.931 923.39 320.86H923.38ZM932.07 349.92C921.015 353.33 909.405 354.569 897.88 353.57C887.052 352.639 876.519 349.56 866.894 344.514C857.269 339.468 848.745 332.556 841.82 324.18C834.82 315.74 802.3 333.09 793.82 304.18C785.34 275.27 821.61 272 822.82 261.18C823.943 250.478 827.226 240.116 832.47 230.72C837.801 221.23 844.934 212.874 853.47 206.12C872.055 191.812 895.272 184.875 918.66 186.64C929.509 187.577 940.069 190.634 949.74 195.64C959.282 200.622 967.721 207.479 974.55 215.8C981.682 224.562 986.971 234.674 990.1 245.53C995.038 261.368 995.051 278.333 990.137 294.179C985.223 310.025 975.613 324.005 962.58 334.27C953.511 341.401 943.152 346.714 932.07 349.92Z" fill="#1D58FF"/>
<path d="M1189.65 241.28C1196.43 239.34 1202.76 236.062 1208.25 231.64C1213.45 227.442 1217.78 222.272 1221 216.42C1224.24 210.468 1226.21 203.905 1226.77 197.15C1227.37 189.837 1226.56 182.477 1224.38 175.47C1222.38 168.449 1219.03 161.884 1214.52 156.14C1210.32 150.831 1205.08 146.435 1199.12 143.22C1193.25 140.025 1186.78 138.069 1180.12 137.47C1166.04 136.401 1152.07 140.58 1140.89 149.2C1135.65 153.357 1131.31 158.543 1128.14 164.44C1116.23 183.78 1090.7 186.44 1090.06 193.34C1089.45 200.616 1090.25 207.941 1092.43 214.91C1094.45 221.963 1097.8 228.56 1102.32 234.34C1106.66 239.83 1128.39 233.72 1150.02 237.63C1155.92 240.758 1162.37 242.705 1169.02 243.36C1175.96 244.038 1182.97 243.331 1189.64 241.28H1189.65ZM1198.33 270.34C1187.28 273.749 1175.67 274.992 1164.14 274C1153.31 273.064 1142.78 269.983 1133.16 264.935C1123.54 259.888 1115.01 252.975 1108.09 244.6C1101.03 236.16 1068.57 253.51 1060.09 224.6C1051.61 195.69 1087.89 192.42 1089.09 181.6C1090.22 170.898 1093.5 160.536 1098.75 151.14C1104.08 141.641 1111.21 133.277 1119.75 126.52C1138.34 112.21 1161.56 105.27 1184.95 107.03C1195.8 107.988 1206.35 111.063 1216.01 116.08C1225.56 121.07 1234 127.937 1240.83 136.27C1247.96 145.03 1253.25 155.138 1256.38 165.99C1261.3 181.815 1261.32 198.761 1256.42 214.594C1251.52 230.427 1241.93 244.403 1228.93 254.68C1219.84 261.827 1209.45 267.144 1198.33 270.34Z" fill="#1D58FF"/>
<path d="M1455.91 161.68C1462.69 159.74 1469.02 156.462 1474.52 152.04C1479.72 147.84 1484.05 142.671 1487.28 136.82C1490.52 130.867 1492.49 124.304 1493.05 117.55C1493.65 110.236 1492.84 102.875 1490.65 95.8699C1488.65 88.8476 1485.3 82.2821 1480.79 76.5399C1476.59 71.2484 1471.35 66.872 1465.4 63.6799C1459.53 60.4855 1453.06 58.5285 1446.4 57.9299C1432.33 56.8614 1418.35 61.0359 1407.17 69.6499C1401.92 73.8076 1397.58 78.9979 1394.42 84.8999C1382.51 104.24 1356.98 106.9 1356.34 113.8C1355.72 121.075 1356.53 128.4 1358.7 135.37C1360.72 142.425 1364.08 149.025 1368.6 154.81C1372.93 160.29 1394.67 154.18 1416.3 158.1C1422.2 161.223 1428.66 163.166 1435.3 163.82C1442.24 164.478 1449.25 163.751 1455.91 161.68ZM1464.6 190.74C1453.55 194.15 1441.94 195.389 1430.41 194.39C1419.58 193.459 1409.05 190.38 1399.42 185.334C1389.8 180.288 1381.27 173.376 1374.35 165C1367.29 156.56 1334.83 173.91 1326.4 145C1317.97 116.09 1354.19 112.82 1355.4 102C1356.52 91.2984 1359.81 80.9359 1365.05 71.5399C1370.38 62.0503 1377.51 53.6938 1386.05 46.94C1404.64 32.6321 1427.85 25.6947 1451.24 27.4599C1462.09 28.3966 1472.65 31.4544 1482.32 36.4599C1491.86 41.4423 1500.3 48.2992 1507.13 56.62C1514.26 65.3819 1519.55 75.4941 1522.68 86.35C1527.62 102.188 1527.63 119.153 1522.72 134.999C1517.8 150.845 1508.19 164.825 1495.16 175.09C1486.08 182.237 1475.7 187.561 1464.6 190.77V190.74Z" fill="#1D58FF"/>
<path d="M49.7501 794.42C56.4898 792.475 62.7751 789.208 68.2401 784.81C73.4433 780.611 77.7775 775.438 81.0001 769.58C84.2435 763.628 86.2087 757.065 86.7701 750.31C87.3656 743.039 86.5645 735.72 84.4101 728.75C82.4094 721.728 79.0604 715.162 74.55 709.42C70.3522 704.111 65.1155 699.715 59.1601 696.5C53.2868 693.304 46.8201 691.347 40.1601 690.75C26.0854 689.683 12.1132 693.858 0.930061 702.47C-4.31811 706.62 -8.66641 711.795 -11.8499 717.68C-23.7599 737.02 -49.2899 739.68 -49.9199 746.59C-50.5404 753.865 -49.7388 761.191 -47.5599 768.16C-45.5393 775.211 -42.1816 781.807 -37.6699 787.59C-33.3299 793.07 -11.5999 786.96 10.0301 790.88C15.9319 794.004 22.3851 795.95 29.0301 796.61C36.0136 797.258 43.0563 796.514 49.7501 794.42ZM58.4301 823.48C47.3755 826.891 35.7655 828.13 24.2401 827.13C13.4138 826.194 2.88219 823.113 -6.7409 818.066C-16.364 813.018 -24.886 806.105 -31.8099 797.73C-38.8699 789.29 -71.3299 806.64 -79.8099 777.73C-88.2899 748.82 -52.0199 745.55 -50.8099 734.73C-49.682 724.028 -46.3958 713.666 -41.1499 704.27C-35.8223 694.781 -28.6881 686.427 -20.1499 679.68C-1.55563 665.371 21.662 658.421 45.0601 660.16C55.9096 661.112 66.4663 664.187 76.1301 669.21C85.6883 674.168 94.1472 681.005 101 689.31C108.126 698.074 113.412 708.186 116.54 719.04C121.472 734.879 121.48 751.842 116.563 767.686C111.645 783.53 102.034 797.507 89.0001 807.77C79.917 814.927 69.5368 820.261 58.4301 823.48Z" fill="#1D58FF"/>
<path d="M316 714.84C322.744 712.897 329.033 709.63 334.5 705.23C339.7 701.035 344.031 695.865 347.25 690.01C350.485 684.056 352.444 677.493 353 670.74C353.6 663.427 352.789 656.067 350.61 649.06C348.609 642.041 345.26 635.478 340.75 629.74C336.55 624.431 331.314 620.032 325.36 616.81C319.485 613.621 313.019 611.667 306.36 611.07C292.288 609.998 278.317 614.173 267.14 622.79C261.894 626.946 257.555 632.132 254.39 638.03C242.47 657.37 216.94 660.03 216.31 666.94C215.689 674.212 216.491 681.535 218.67 688.5C220.688 695.555 224.046 702.155 228.56 707.94C232.9 713.43 254.63 707.31 276.26 711.23C282.162 714.354 288.615 716.3 295.26 716.96C302.246 717.641 309.297 716.921 316 714.84ZM324.69 743.9C313.632 747.31 302.019 748.55 290.49 747.55C279.653 746.629 269.108 743.559 259.471 738.518C249.834 733.477 241.297 726.566 234.36 718.19C227.3 709.74 194.83 727.09 186.36 698.19C177.89 669.29 214.15 666.01 215.36 655.19C216.507 644.473 219.824 634.103 225.11 624.71C230.435 615.216 237.569 606.858 246.11 600.11C264.694 585.8 287.911 578.862 311.3 580.63C322.15 581.564 332.71 584.622 342.38 589.63C351.928 594.617 360.37 601.481 367.2 609.81C374.32 618.616 379.588 628.769 382.69 639.66C387.627 655.499 387.639 672.464 382.723 688.31C377.807 704.156 368.195 718.136 355.16 728.4C346.093 735.469 335.752 740.731 324.7 743.9H324.69Z" fill="#1D58FF"/>
<path d="M582.28 635.27C589.018 633.331 595.304 630.071 600.77 625.68C605.973 621.481 610.308 616.308 613.53 610.45C616.774 604.498 618.739 597.935 619.3 591.18C619.901 583.87 619.09 576.513 616.91 569.51C614.905 562.489 611.557 555.925 607.05 550.18C602.851 544.869 597.61 540.472 591.65 537.26C585.776 534.066 579.31 532.109 572.65 531.51C558.575 530.442 544.602 534.616 533.42 543.23C528.177 547.389 523.838 552.575 520.67 558.47C508.76 577.81 483.23 580.47 482.59 587.38C481.973 594.656 482.778 601.982 484.96 608.95C486.976 616.003 490.334 622.6 494.85 628.38C499.19 633.87 520.92 627.75 542.55 631.67C548.449 634.801 554.904 636.747 561.55 637.4C568.533 638.071 575.58 637.347 582.28 635.27ZM591 664.33C579.946 667.741 568.336 668.98 556.81 667.98C545.993 667.038 535.47 663.954 525.856 658.906C516.242 653.859 507.728 646.949 500.81 638.58C493.75 630.14 461.29 647.49 452.81 618.58C444.33 589.67 480.6 586.4 481.81 575.58C482.938 564.878 486.224 554.516 491.47 545.12C496.798 535.631 503.932 527.277 512.47 520.53C531.059 506.22 554.278 499.28 577.67 501.04C588.519 501.977 599.079 505.034 608.75 510.04C618.296 515.033 626.738 521.9 633.57 530.23C640.696 538.994 645.982 549.106 649.11 559.96C654.041 575.799 654.047 592.761 649.127 608.603C644.208 624.445 634.595 638.42 621.56 648.68C612.475 655.814 602.099 661.128 591 664.33Z" fill="#1D58FF"/>
<path d="M848.54 555.68C855.284 553.737 861.573 550.47 867.04 546.07C872.24 541.872 876.574 536.703 879.8 530.85C883.038 524.896 885.003 518.334 885.57 511.58C886.167 504.266 885.352 496.906 883.17 489.9C881.169 482.878 877.821 476.312 873.31 470.57C869.109 465.273 863.872 460.887 857.92 457.68C852.045 454.487 845.579 452.53 838.92 451.93C824.835 450.864 810.853 455.05 799.67 463.68C794.422 467.838 790.082 473.028 786.92 478.93C775.01 498.27 749.47 500.93 748.84 507.83C748.22 515.105 749.021 522.431 751.2 529.4C753.221 536.451 756.578 543.047 761.09 548.83C765.43 554.32 787.16 548.2 808.79 552.12C814.69 555.248 821.144 557.195 827.79 557.85C834.782 558.517 841.837 557.779 848.54 555.68ZM857.23 584.74C846.172 588.15 834.559 589.39 823.03 588.39C812.193 587.469 801.648 584.399 792.011 579.358C782.374 574.317 773.837 567.406 766.9 559.03C759.84 550.58 727.37 567.93 718.9 538.98C710.43 510.03 746.69 506.8 747.9 495.98C749.047 485.263 752.364 474.893 757.65 465.5C762.975 456.006 770.109 447.648 778.65 440.9C797.234 426.59 820.451 419.652 843.84 421.42C854.69 422.355 865.25 425.413 874.92 430.42C884.468 435.407 892.91 442.271 899.74 450.6C906.86 459.406 912.128 469.559 915.23 480.45C920.167 496.289 920.178 513.254 915.263 529.1C910.347 544.946 900.735 558.926 887.7 569.19C878.617 576.292 868.252 581.578 857.17 584.76L857.23 584.74Z" fill="#1D58FF"/>
<path d="M1114.81 476.12C1121.59 474.18 1127.92 470.899 1133.41 466.47C1138.62 462.277 1142.95 457.107 1146.17 451.25C1149.41 445.298 1151.38 438.735 1151.94 431.98C1152.54 424.666 1151.73 417.305 1149.54 410.3C1147.54 403.283 1144.19 396.721 1139.69 390.98C1135.49 385.668 1130.25 381.269 1124.29 378.05C1118.41 374.86 1111.95 372.903 1105.29 372.3C1091.19 371.22 1077.2 375.399 1066 384.03C1060.75 388.186 1056.41 393.373 1053.25 399.27C1041.34 418.61 1015.81 421.27 1015.17 428.17C1014.55 435.446 1015.36 442.772 1017.54 449.74C1019.55 456.796 1022.91 463.397 1027.43 469.18C1031.77 474.66 1053.5 468.55 1075.13 472.47C1081.03 475.596 1087.48 477.543 1094.13 478.2C1101.09 478.88 1108.12 478.174 1114.81 476.12ZM1123.49 505.18C1112.44 508.591 1100.83 509.83 1089.3 508.83C1078.48 507.888 1067.96 504.804 1058.35 499.756C1048.73 494.709 1040.22 487.799 1033.3 479.43C1026.24 470.99 993.78 488.34 985.3 459.43C976.82 430.52 1013.09 427.25 1014.3 416.43C1015.43 405.728 1018.71 395.366 1023.96 385.97C1029.29 376.481 1036.42 368.127 1044.96 361.38C1063.55 347.071 1086.77 340.13 1110.16 341.89C1121.01 342.827 1131.57 345.885 1141.24 350.89C1150.79 355.883 1159.23 362.75 1166.06 371.08C1173.19 379.844 1178.47 389.956 1181.6 400.81C1186.54 416.648 1186.55 433.613 1181.64 449.459C1176.72 465.305 1167.11 479.285 1154.08 489.55C1144.99 496.703 1134.6 502.031 1123.48 505.24L1123.49 505.18Z" fill="#1D58FF"/>
<path d="M1381.07 396.54C1387.85 394.597 1394.18 391.32 1399.68 386.9C1404.88 382.702 1409.21 377.533 1412.43 371.68C1415.67 365.727 1417.64 359.164 1418.2 352.41C1418.8 345.097 1417.99 337.736 1415.81 330.73C1413.81 323.708 1410.46 317.142 1405.95 311.4C1401.75 306.091 1396.52 301.695 1390.56 298.48C1384.69 295.287 1378.22 293.33 1371.56 292.73C1357.49 291.664 1343.51 295.838 1332.33 304.45C1327.08 308.604 1322.73 313.787 1319.55 319.68C1307.64 339.02 1282.11 341.68 1281.48 348.58C1280.86 355.855 1281.66 363.181 1283.84 370.15C1285.86 377.203 1289.22 383.802 1293.73 389.59C1298.07 395.07 1319.8 388.96 1341.43 392.88C1347.33 396.001 1353.79 397.943 1360.43 398.6C1367.38 399.287 1374.39 398.587 1381.07 396.54ZM1389.76 425.6C1378.7 429.01 1367.09 430.25 1355.56 429.25C1344.72 428.33 1334.18 425.258 1324.54 420.215C1314.9 415.173 1306.37 408.259 1299.43 399.88C1292.37 391.44 1259.9 408.79 1251.43 379.88C1242.96 350.97 1279.22 347.7 1280.43 336.88C1281.58 326.163 1284.89 315.793 1290.18 306.4C1295.5 296.906 1302.64 288.548 1311.18 281.8C1329.76 267.49 1352.98 260.552 1376.37 262.32C1387.22 263.25 1397.78 266.309 1407.45 271.32C1417 276.307 1425.44 283.171 1432.27 291.5C1439.39 300.304 1444.66 310.453 1447.76 321.34C1452.7 337.181 1452.71 354.147 1447.79 369.995C1442.88 385.842 1433.26 399.824 1420.23 410.09C1411.15 417.192 1400.78 422.478 1389.7 425.66L1389.76 425.6Z" fill="#1D58FF"/>
<path d="M-25.0899 1029.25C-18.3095 1027.3 -11.9859 1024.02 -6.4899 1019.6C-1.28752 1015.4 3.04669 1010.23 6.27008 1004.38C9.50778 998.426 11.4727 991.864 12.0401 985.11C12.5945 977.842 11.7561 970.534 9.5701 963.58C7.56752 956.559 4.21869 949.993 -0.289917 944.25C-4.49146 938.938 -9.73141 934.539 -15.6899 931.32C-21.5646 928.129 -28.031 926.175 -34.6899 925.58C-48.7661 924.5 -62.743 928.676 -73.9199 937.3C-79.1604 941.462 -83.4985 946.647 -86.6699 952.54C-98.5799 971.88 -124.11 974.54 -124.75 981.45C-125.368 988.722 -124.563 996.045 -122.38 1003.01C-120.365 1010.07 -117.007 1016.67 -112.49 1022.45C-108.15 1027.93 -86.4199 1021.82 -64.7899 1025.74C-58.889 1028.87 -52.4354 1030.81 -45.7899 1031.47C-38.807 1032.11 -31.7668 1031.35 -25.0799 1029.24L-25.0899 1029.25ZM-16.4099 1058.31C-27.4644 1061.72 -39.0745 1062.96 -50.5999 1061.96C-61.4261 1061.02 -71.9578 1057.94 -81.5809 1052.9C-91.204 1047.85 -99.7259 1040.94 -106.65 1032.56C-113.71 1024.12 -146.18 1041.47 -154.65 1012.56C-163.12 983.65 -126.86 980.38 -125.65 969.56C-124.527 958.857 -121.24 948.494 -115.99 939.1C-110.665 929.609 -103.531 921.255 -94.9899 914.51C-76.4041 900.195 -53.1832 893.253 -29.7899 895.02C-18.9407 895.957 -8.38091 899.015 1.2901 904.02C10.8299 909.006 19.2677 915.862 26.1001 924.18C33.2507 932.979 38.55 943.132 41.6801 954.03C46.6543 969.836 46.6917 986.783 41.7874 1002.61C36.883 1018.44 27.27 1032.4 14.2301 1042.62C5.11177 1049.81 -5.31421 1055.16 -16.4699 1058.37L-16.4099 1058.31Z" fill="#1D58FF"/>
<path d="M241.17 949.68C247.91 947.735 254.195 944.468 259.66 940.07C264.861 935.873 269.195 930.703 272.42 924.85C275.662 918.894 277.627 912.328 278.19 905.57C278.791 898.26 277.98 890.903 275.8 883.9C273.795 876.879 270.447 870.315 265.94 864.57C261.738 859.262 256.498 854.865 250.54 851.65C244.666 848.456 238.2 846.499 231.54 845.9C217.464 844.832 203.49 849.01 192.31 857.63C187.065 861.787 182.726 866.974 179.56 872.87C167.65 892.21 142.12 894.87 141.49 901.78C140.864 909.09 141.676 916.452 143.88 923.45C145.903 930.503 149.26 937.102 153.77 942.89C158.11 948.37 179.84 942.26 201.47 946.18C207.374 949.3 213.826 951.245 220.47 951.91C227.45 952.543 234.485 951.785 241.17 949.68ZM249.85 978.74C238.796 982.151 227.185 983.39 215.66 982.39C204.835 981.454 194.304 978.374 184.681 973.328C175.059 968.282 166.536 961.372 159.61 953C152.55 944.55 120.09 961.9 111.61 933C103.13 904.1 139.4 900.82 140.61 890C141.738 879.298 145.024 868.936 150.27 859.54C155.61 850.036 162.762 841.672 171.32 834.92C189.907 820.608 213.128 813.67 236.52 815.44C247.363 816.378 257.916 819.435 267.58 824.44C277.129 829.43 285.571 836.297 292.4 844.63C299.539 853.372 304.845 863.463 308 874.3C312.934 890.14 312.944 907.104 308.028 922.949C303.113 938.795 293.503 952.774 280.47 963.04C271.37 970.195 260.973 975.523 249.85 978.73V978.74Z" fill="#1D58FF"/>
<path d="M507.44 870.1C514.177 868.148 520.461 864.882 525.93 860.49C531.131 856.289 535.464 851.116 538.69 845.26C541.929 839.306 543.894 832.744 544.46 825.99C545.058 818.68 544.243 811.323 542.06 804.32C540.059 797.298 536.71 790.732 532.2 784.99C528.007 779.677 522.769 775.28 516.81 772.07C510.936 768.876 504.47 766.919 497.81 766.32C483.735 765.252 469.762 769.426 458.58 778.04C453.332 782.198 448.992 787.388 445.83 793.29C433.92 812.63 408.39 815.29 407.75 822.19C407.133 829.466 407.938 836.792 410.12 843.76C412.139 850.815 415.496 857.415 420.01 863.2C424.34 868.68 446.08 862.57 467.71 866.49C473.611 869.613 480.065 871.556 486.71 872.21C493.695 872.889 500.745 872.172 507.45 870.1H507.44ZM516.12 899.1C505.067 902.519 493.456 903.762 481.93 902.76C471.112 901.818 460.59 898.734 450.976 893.686C441.362 888.639 432.848 881.729 425.93 873.36C418.87 864.92 386.4 882.27 377.93 853.36C369.46 824.45 405.72 821.18 406.93 810.36C408.053 799.657 411.34 789.294 416.59 779.9C421.917 770.408 429.051 762.051 437.59 755.3C456.182 740.997 479.399 734.06 502.79 735.82C513.639 736.757 524.199 739.815 533.87 744.82C543.41 749.806 551.848 756.662 558.68 764.98C565.802 773.738 571.09 783.838 574.23 794.68C579.168 810.52 579.18 827.486 574.266 843.333C569.352 859.18 559.743 873.162 546.71 883.43C537.621 890.591 527.234 895.929 516.12 899.15V899.1Z" fill="#1D58FF"/>
<path d="M1040 710.95C1046.74 708.999 1053.03 705.732 1058.5 701.34C1063.7 697.139 1068.03 691.966 1071.26 686.11C1074.5 680.156 1076.46 673.594 1077.03 666.84C1077.63 659.53 1076.81 652.172 1074.63 645.17C1072.63 638.148 1069.28 631.582 1064.77 625.84C1060.58 620.527 1055.34 616.13 1049.38 612.92C1043.51 609.726 1037.04 607.769 1030.38 607.17C1016.31 606.102 1002.33 610.276 991.15 618.89C985.902 623.048 981.562 628.238 978.4 634.14C966.49 653.48 940.96 656.14 940.32 663.04C939.703 670.316 940.507 677.642 942.69 684.61C944.709 691.665 948.066 698.265 952.58 704.05C956.91 709.53 978.65 703.42 1000.28 707.34C1006.18 710.463 1012.64 712.406 1019.28 713.06C1026.26 713.739 1033.31 713.021 1040.02 710.95H1040ZM1048.69 740.01C1037.64 743.42 1026.03 744.659 1014.5 743.66C1003.67 742.725 993.139 739.643 983.514 734.596C973.89 729.548 965.366 722.635 958.44 714.26C951.38 705.82 918.92 723.17 910.44 694.26C901.96 665.35 938.23 662.08 939.44 651.26C940.573 640.559 943.859 630.198 949.1 620.8C954.429 611.312 961.563 602.958 970.1 596.21C988.687 581.878 1011.92 574.922 1035.32 576.68C1046.17 577.617 1056.73 580.674 1066.4 585.68C1075.94 590.666 1084.38 597.522 1091.21 605.84C1098.34 614.605 1103.63 624.716 1106.76 635.57C1111.7 651.41 1111.71 668.376 1106.8 684.223C1101.88 700.07 1092.27 714.052 1079.24 724.32C1070.15 731.47 1059.76 736.797 1048.65 740.01H1048.69Z" fill="#1D58FF"/>
<path d="M1306.23 631.37C1313.01 629.43 1319.34 626.149 1324.83 621.72C1330.04 617.527 1334.37 612.357 1337.59 606.5C1340.83 600.548 1342.8 593.985 1343.36 587.23C1343.96 579.92 1343.15 572.563 1340.97 565.56C1338.97 558.539 1335.62 551.975 1331.11 546.23C1326.91 540.919 1321.67 536.522 1315.71 533.31C1309.84 530.111 1303.37 528.154 1296.71 527.56C1282.64 526.493 1268.66 530.668 1257.48 539.28C1252.24 543.443 1247.9 548.632 1244.73 554.53C1232.82 573.87 1207.29 576.53 1206.66 583.43C1206.04 590.705 1206.84 598.031 1209.02 605C1211.04 612.051 1214.4 618.647 1218.91 624.43C1223.25 629.92 1244.98 623.8 1266.61 627.72C1272.51 630.85 1278.96 632.796 1285.61 633.45C1292.55 634.128 1299.56 633.421 1306.23 631.37ZM1314.91 660.43C1303.86 663.841 1292.25 665.08 1280.72 664.08C1269.9 663.138 1259.38 660.054 1249.77 655.006C1240.15 649.959 1231.64 643.049 1224.72 634.68C1217.66 626.24 1185.2 643.59 1176.72 614.68C1168.24 585.77 1204.51 582.5 1205.72 571.68C1206.85 560.978 1210.13 550.616 1215.38 541.22C1220.72 531.716 1227.87 523.352 1236.43 516.6C1255.02 502.29 1278.24 495.349 1301.63 497.11C1312.47 498.053 1323.02 501.11 1332.69 506.11C1342.24 511.1 1350.68 517.967 1357.51 526.3C1364.61 535.061 1369.88 545.161 1373 556C1377.93 571.84 1377.94 588.804 1373.03 604.649C1368.11 620.495 1358.5 634.474 1345.47 644.74C1336.39 651.889 1326.01 657.216 1314.91 660.43Z" fill="#1D58FF"/>
<path d="M1572.49 551.8C1579.27 549.856 1585.6 546.575 1591.1 542.15C1596.3 537.957 1600.63 532.786 1603.85 526.93C1607.1 520.978 1609.06 514.415 1609.63 507.66C1610.22 500.35 1609.41 492.993 1607.23 485.99C1605.23 478.967 1601.88 472.401 1597.37 466.66C1593.18 461.353 1587.95 456.954 1582 453.73C1576.12 450.541 1569.66 448.587 1563 447.99C1548.91 446.897 1534.92 451.062 1523.73 459.68C1518.49 463.848 1514.15 469.049 1511 474.96C1499.09 494.3 1473.55 496.96 1472.92 503.86C1472.3 511.135 1473.1 518.461 1475.28 525.43C1477.3 532.481 1480.66 539.077 1485.17 544.86C1489.51 550.35 1511.24 544.23 1532.87 548.15C1538.77 551.274 1545.22 553.22 1551.87 553.88C1558.81 554.558 1565.82 553.851 1572.49 551.8ZM1581.18 580.86C1570.13 584.27 1558.52 585.509 1546.99 584.51C1536.16 583.575 1525.63 580.493 1516 575.446C1506.38 570.398 1497.86 563.485 1490.93 555.11C1483.87 546.67 1451.41 564.02 1442.93 535.11C1434.45 506.2 1470.72 502.93 1471.93 492.11C1473.06 481.409 1476.35 471.048 1481.59 461.65C1486.92 452.162 1494.05 443.808 1502.59 437.06C1521.17 422.749 1544.39 415.809 1567.78 417.57C1578.63 418.507 1589.19 421.564 1598.86 426.57C1608.42 431.533 1616.88 438.373 1623.74 446.68C1630.87 455.445 1636.16 465.556 1639.29 476.41C1644.23 492.25 1644.24 509.216 1639.33 525.063C1634.41 540.91 1624.8 554.892 1611.77 565.16C1602.68 572.311 1592.29 577.641 1581.18 580.86Z" fill="#1D58FF"/>
<path d="M166.33 1184.5C173.071 1182.56 179.358 1179.29 184.82 1174.89C190.02 1170.7 194.354 1165.53 197.58 1159.68C200.821 1153.73 202.786 1147.16 203.35 1140.41C203.946 1133.14 203.145 1125.81 200.99 1118.84C198.989 1111.82 195.64 1105.25 191.13 1099.51C186.931 1094.2 181.69 1089.8 175.73 1086.59C169.856 1083.4 163.39 1081.44 156.73 1080.84C142.655 1079.77 128.683 1083.95 117.5 1092.56C112.257 1096.72 107.918 1101.91 104.75 1107.81C92.8401 1127.15 67.3101 1129.81 66.6701 1136.71C66.0575 1143.99 66.8623 1151.31 69.0401 1158.28C71.0628 1165.33 74.4202 1171.93 78.9301 1177.72C83.2701 1183.2 105 1177.09 126.63 1181.01C132.533 1184.13 138.986 1186.07 145.63 1186.73C152.61 1187.37 159.647 1186.61 166.33 1184.5ZM175.01 1213.56C163.956 1216.97 152.346 1218.21 140.82 1217.21C129.995 1216.27 119.464 1213.19 109.842 1208.15C100.219 1203.1 91.6961 1196.19 84.7701 1187.82C77.7101 1179.38 45.2501 1196.72 36.7701 1167.77C28.2901 1138.82 64.5601 1135.6 65.7701 1124.77C66.895 1114.07 70.1814 1103.7 75.4301 1094.31C80.7575 1084.82 87.8917 1076.46 96.4301 1069.71C115.03 1055.41 138.243 1048.46 161.64 1050.19C172.486 1051.13 183.042 1054.19 192.71 1059.19C202.254 1064.18 210.695 1071.05 217.53 1079.37C224.652 1088.14 229.936 1098.25 233.07 1109.1C238.005 1124.94 238.015 1141.9 233.099 1157.74C228.183 1173.59 218.573 1187.57 205.54 1197.83C196.468 1204.99 186.098 1210.33 175 1213.56H175.01Z" fill="#1D58FF"/>
<path d="M432.59 1104.93C439.33 1102.98 445.618 1099.71 451.09 1095.32C456.29 1091.12 460.621 1085.95 463.84 1080.09C467.083 1074.14 469.049 1067.57 469.61 1060.82C470.211 1053.51 469.4 1046.15 467.22 1039.15C465.219 1032.13 461.87 1025.56 457.36 1019.82C453.171 1014.51 447.945 1010.12 442 1006.9C436.125 1003.71 429.659 1001.75 423 1001.15C408.925 1000.08 394.954 1004.26 383.77 1012.87C378.52 1017.03 374.174 1022.22 371 1028.12C359.09 1047.46 333.56 1050.12 332.93 1057.02C332.31 1064.3 333.111 1071.62 335.29 1078.59C337.311 1085.64 340.668 1092.24 345.18 1098.02C349.52 1103.51 371.25 1097.39 392.88 1101.31C398.782 1104.43 405.235 1106.38 411.88 1107.04C418.855 1107.72 425.895 1107 432.59 1104.93ZM441.28 1133.93C430.224 1137.35 418.609 1138.59 407.08 1137.59C396.241 1136.67 385.695 1133.59 376.056 1128.55C366.417 1123.51 357.879 1116.6 350.94 1108.22C343.89 1099.78 311.42 1117.12 302.94 1088.22C294.46 1059.32 330.73 1056.04 331.94 1045.22C333.088 1034.5 336.402 1024.13 341.68 1014.73C347.011 1005.24 354.144 996.884 362.68 990.13C381.299 975.787 404.565 968.837 428 970.62C438.849 971.557 449.409 974.614 459.08 979.62C468.628 984.61 477.071 991.477 483.9 999.81C491.007 1008.62 496.259 1018.78 499.34 1029.68C504.274 1045.52 504.284 1062.48 499.368 1078.33C494.453 1094.17 484.843 1108.15 471.81 1118.42C462.729 1125.52 452.363 1130.81 441.28 1133.98V1133.93Z" fill="#1D58FF"/>
<path d="M698.86 1025.35C705.6 1023.4 711.885 1020.14 717.35 1015.74C722.551 1011.54 726.885 1006.37 730.11 1000.52C733.351 994.567 735.316 988.004 735.88 981.25C736.483 973.936 735.668 966.575 733.48 959.57C731.477 952.551 728.132 945.986 723.63 940.24C719.428 934.932 714.188 930.535 708.23 927.32C702.354 924.13 695.889 922.173 689.23 921.57C675.154 920.505 661.181 924.683 650 933.3C644.754 937.456 640.415 942.643 637.25 948.54C625.34 967.88 599.81 970.54 599.17 977.45C598.553 984.726 599.358 992.052 601.54 999.02C603.556 1006.07 606.914 1012.67 611.43 1018.45C615.77 1023.93 637.5 1017.82 659.13 1021.74C665.031 1024.87 671.485 1026.81 678.13 1027.47C685.112 1028.15 692.16 1027.43 698.86 1025.35ZM707.54 1054.41C696.486 1057.82 684.876 1059.06 673.35 1058.06C662.526 1057.13 651.996 1054.05 642.373 1049C632.75 1043.96 624.227 1037.05 617.3 1028.68C610.24 1020.24 577.78 1037.58 569.3 1008.68C560.82 979.78 597.09 976.51 598.3 965.68C599.425 954.978 602.711 944.615 607.96 935.22C613.288 925.728 620.422 917.371 628.96 910.62C647.549 896.311 670.768 889.37 694.16 891.13C705.009 892.067 715.569 895.125 725.24 900.13C734.786 905.12 743.228 911.983 750.06 920.31C757.182 929.078 762.466 939.188 765.6 950.04C770.538 965.88 770.55 982.846 765.636 998.693C760.722 1014.54 751.113 1028.52 738.08 1038.79C728.999 1045.91 718.63 1051.22 707.54 1054.41Z" fill="#1D58FF"/>
<path d="M965.12 945.77C971.861 943.826 978.15 940.563 983.62 936.17C988.82 931.971 993.151 926.798 996.37 920.94C999.617 914.989 1001.59 908.426 1002.15 901.67C1002.75 894.36 1001.93 887.002 999.75 880C997.749 872.978 994.4 866.412 989.89 860.67C985.695 855.359 980.457 850.962 974.5 847.75C968.625 844.557 962.159 842.6 955.5 842C941.425 840.934 927.454 845.109 916.27 853.72C911.027 857.883 906.688 863.072 903.52 868.97C891.61 888.31 866.08 890.97 865.45 897.87C864.83 905.145 865.631 912.471 867.81 919.44C869.831 926.491 873.188 933.087 877.7 938.87C882.04 944.36 903.77 938.24 925.4 942.16C931.302 945.284 937.755 947.23 944.4 947.89C951.379 948.569 958.423 947.848 965.12 945.77ZM973.81 974.83C962.754 978.248 951.139 979.491 939.61 978.49C928.771 977.567 918.225 974.494 908.586 969.451C898.947 964.409 890.409 957.497 883.47 949.12C876.47 940.68 843.95 958.02 835.47 929.12C826.99 900.22 863.26 896.95 864.47 886.12C865.618 875.402 868.932 865.029 874.21 855.63C879.541 846.14 886.674 837.784 895.21 831.03C913.799 816.728 937.012 809.791 960.4 811.55C971.249 812.487 981.809 815.544 991.48 820.55C1001.03 825.54 1009.47 832.407 1016.3 840.74C1023.42 849.541 1028.69 859.691 1031.79 870.58C1036.73 886.419 1036.74 903.385 1031.82 919.231C1026.91 935.077 1017.3 949.057 1004.26 959.32C995.199 966.395 984.861 971.661 973.81 974.83Z" fill="#1D58FF"/>
<path d="M1231.39 866.2C1238.17 864.26 1244.5 860.982 1249.99 856.56C1255.19 852.361 1259.53 847.188 1262.75 841.33C1265.99 835.378 1267.96 828.815 1268.52 822.06C1269.12 814.75 1268.31 807.392 1266.12 800.39C1264.12 793.37 1260.77 786.805 1256.27 781.06C1252.07 775.749 1246.83 771.352 1240.87 768.14C1235 764.945 1228.53 762.989 1221.87 762.39C1207.8 761.321 1193.82 765.496 1182.64 774.11C1177.39 778.271 1173.06 783.46 1169.89 789.36C1157.98 808.7 1132.45 811.36 1131.81 818.26C1131.19 825.536 1132 832.862 1134.18 839.83C1136.2 846.883 1139.55 853.48 1144.07 859.26C1148.4 864.75 1170.14 858.63 1191.77 862.55C1197.67 865.681 1204.12 867.627 1210.77 868.28C1217.71 868.958 1224.72 868.251 1231.39 866.2ZM1240.07 895.26C1229.02 898.671 1217.41 899.91 1205.88 898.91C1195.05 897.974 1184.52 894.893 1174.9 889.848C1165.28 884.802 1156.76 877.892 1149.83 869.52C1142.77 861.08 1110.31 878.42 1101.83 849.52C1093.35 820.62 1129.62 817.35 1130.83 806.52C1131.95 795.817 1135.24 785.455 1140.49 776.06C1145.82 766.568 1152.95 758.211 1161.49 751.46C1180.08 737.151 1203.3 730.21 1226.69 731.97C1237.54 732.907 1248.1 735.965 1257.77 740.97C1267.31 745.962 1275.76 752.825 1282.59 761.15C1289.71 769.917 1295 780.028 1298.13 790.88C1303.07 806.72 1303.08 823.686 1298.17 839.533C1293.25 855.38 1283.64 869.362 1270.61 879.63C1261.52 886.78 1251.13 892.105 1240.01 895.31L1240.07 895.26Z" fill="#1D58FF"/>
<path d="M1497.65 786.62C1504.43 784.677 1510.76 781.4 1516.26 776.98C1521.46 772.782 1525.79 767.613 1529.01 761.76C1532.25 755.808 1534.22 749.245 1534.78 742.49C1535.38 735.177 1534.57 727.817 1532.39 720.81C1530.39 713.791 1527.04 707.229 1522.53 701.49C1518.33 696.181 1513.09 691.782 1507.14 688.56C1501.26 685.371 1494.8 683.417 1488.14 682.82C1474.06 681.75 1460.09 685.924 1448.91 694.54C1443.67 698.7 1439.33 703.89 1436.17 709.79C1424.25 729.13 1398.72 731.79 1398.08 738.69C1397.46 745.966 1398.27 753.292 1400.45 760.26C1402.47 767.313 1405.82 773.91 1410.34 779.69C1414.68 785.18 1436.41 779.06 1458.04 782.98C1463.94 786.106 1470.39 788.053 1477.04 788.71C1483.99 789.389 1491 788.682 1497.67 786.63L1497.65 786.62ZM1506.34 815.68C1495.28 819.093 1483.67 820.336 1472.14 819.34C1461.3 818.417 1450.75 815.344 1441.12 810.301C1431.48 805.259 1422.94 798.347 1416 789.97C1409 781.53 1376.48 798.87 1368 769.97C1359.52 741.07 1395.79 737.8 1397 726.97C1398.15 716.252 1401.46 705.879 1406.74 696.48C1412.07 686.99 1419.2 678.634 1427.74 671.88C1446.34 657.532 1469.58 650.566 1493 652.32C1503.85 653.257 1514.41 656.315 1524.08 661.32C1533.63 666.31 1542.07 673.177 1548.9 681.51C1556.02 690.311 1561.29 700.461 1564.39 711.35C1569.32 727.19 1569.33 744.154 1564.42 759.999C1559.5 775.845 1549.89 789.824 1536.86 800.09C1527.78 807.196 1517.41 812.482 1506.33 815.66L1506.34 815.68Z" fill="#1D58FF"/>
<path d="M91.4901 1419.33C98.2703 1417.39 104.594 1414.11 110.09 1409.69C115.291 1405.49 119.624 1400.32 122.85 1394.46C126.089 1388.51 128.054 1381.94 128.62 1375.19C129.171 1367.92 128.329 1360.61 126.14 1353.66C124.139 1346.64 120.794 1340.08 116.29 1334.33C112.091 1329.02 106.85 1324.62 100.89 1321.41C95.016 1318.22 88.5497 1316.26 81.8901 1315.66C67.8139 1314.58 53.837 1318.76 42.6601 1327.38C37.4019 1331.55 33.0556 1336.76 29.8901 1342.68C17.9801 1362.02 -7.54995 1364.68 -8.18995 1371.58C-8.80693 1378.86 -8.00197 1386.18 -5.81995 1393.15C-3.80418 1400.2 -0.446083 1406.8 4.07006 1412.58C8.40006 1418.07 30.14 1411.95 51.77 1415.87C57.6709 1419 64.1246 1420.94 70.77 1421.6C77.749 1422.24 84.7851 1421.48 91.4701 1419.38L91.4901 1419.33ZM100.17 1448.39C89.1155 1451.8 77.5055 1453.04 65.9801 1452.04C55.1568 1451.11 44.6269 1448.03 35.004 1442.99C25.3811 1437.95 16.8576 1431.05 9.93005 1422.68C2.87004 1414.24 -29.6 1431.58 -38.07 1402.68C-46.54 1373.78 -10.28 1370.51 -9.06995 1359.68C-7.94693 1348.98 -4.66042 1338.61 0.59005 1329.22C5.91725 1319.73 13.0516 1311.38 21.59 1304.63C40.1728 1290.32 63.3901 1283.37 86.7801 1285.14C97.6298 1286.07 108.19 1289.13 117.86 1294.14C127.402 1299.12 135.844 1305.98 142.68 1314.29C149.831 1323.09 155.13 1333.24 158.26 1344.14C163.234 1359.95 163.271 1376.9 158.366 1392.73C153.462 1408.55 143.85 1422.51 130.81 1432.74C121.69 1439.92 111.264 1445.26 100.11 1448.47L100.17 1448.39Z" fill="#1D58FF"/>
<path d="M357.75 1339.75C364.491 1337.81 370.777 1334.54 376.24 1330.14C381.441 1325.94 385.775 1320.77 389 1314.92C392.242 1308.97 394.207 1302.4 394.77 1295.65C395.373 1288.34 394.558 1280.97 392.37 1273.97C390.369 1266.95 387.024 1260.39 382.52 1254.64C378.321 1249.33 373.08 1244.93 367.12 1241.72C361.246 1238.53 354.78 1236.57 348.12 1235.97C334.04 1234.89 320.059 1239.06 308.87 1247.68C303.622 1251.84 299.282 1257.03 296.12 1262.93C284.21 1282.27 258.68 1284.93 258.04 1291.83C257.418 1299.14 258.233 1306.51 260.44 1313.51C262.461 1320.56 265.818 1327.16 270.33 1332.94C274.67 1338.43 296.4 1332.31 318.03 1336.23C323.93 1339.36 330.384 1341.31 337.03 1341.96C344.009 1342.6 351.046 1341.85 357.73 1339.74L357.75 1339.75ZM366.43 1368.81C355.376 1372.22 343.765 1373.46 332.24 1372.46C321.424 1371.52 310.903 1368.43 301.289 1363.39C291.675 1358.34 283.16 1351.44 276.24 1343.07C269.18 1334.63 236.72 1351.97 228.24 1323.02C219.76 1294.07 256.03 1290.85 257.24 1280.02C258.365 1269.32 261.651 1258.95 266.9 1249.56C272.225 1240.06 279.359 1231.69 287.9 1224.93C306.489 1210.63 329.702 1203.69 353.09 1205.45C363.936 1206.39 374.493 1209.44 384.16 1214.45C393.719 1219.45 402.169 1226.33 409 1234.68C416.125 1243.45 421.413 1253.56 424.55 1264.41C429.469 1280.25 429.469 1297.21 424.551 1313.05C419.632 1328.89 410.026 1342.86 397 1353.13C387.915 1360.28 377.535 1365.6 366.43 1368.81Z" fill="#1D58FF"/>
<path d="M624 1260.18C630.739 1258.23 637.023 1254.97 642.49 1250.57C647.688 1246.37 652.021 1241.2 655.25 1235.35C658.478 1229.39 660.436 1222.83 661 1216.08C661.598 1208.77 660.783 1201.41 658.6 1194.4C656.599 1187.38 653.25 1180.81 648.74 1175.07C644.544 1169.76 639.307 1165.36 633.35 1162.15C627.475 1158.96 621.009 1157 614.35 1156.4C600.275 1155.33 586.302 1159.51 575.12 1168.12C569.872 1172.28 565.532 1177.47 562.37 1183.37C550.46 1202.71 524.92 1205.37 524.29 1212.27C523.67 1219.55 524.471 1226.87 526.65 1233.84C528.671 1240.89 532.028 1247.49 536.54 1253.27C540.88 1258.76 562.61 1252.65 584.24 1256.56C590.14 1259.69 596.594 1261.63 603.24 1262.29C610.231 1262.97 617.288 1262.25 624 1260.18ZM632.68 1289.24C621.625 1292.65 610.015 1293.89 598.49 1292.89C587.673 1291.95 577.152 1288.87 567.537 1283.82C557.923 1278.78 549.409 1271.87 542.49 1263.5C535.43 1255.05 502.96 1272.4 494.49 1243.5C486.02 1214.6 522.28 1211.33 523.49 1200.5C524.613 1189.8 527.9 1179.43 533.15 1170.04C538.477 1160.55 545.612 1152.2 554.15 1145.45C572.735 1131.14 595.951 1124.2 619.34 1125.96C630.19 1126.89 640.75 1129.95 650.42 1134.96C659.962 1139.94 668.404 1146.8 675.24 1155.11C682.361 1163.88 687.646 1173.99 690.78 1184.84C695.718 1200.68 695.73 1217.65 690.816 1233.49C685.902 1249.34 676.293 1263.32 663.26 1273.59C654.17 1280.75 643.783 1286.08 632.67 1289.3L632.68 1289.24Z" fill="#1D58FF"/>
<path d="M890.28 1180.6C897.021 1178.66 903.308 1175.39 908.77 1170.99C913.971 1166.79 918.305 1161.62 921.53 1155.77C924.772 1149.82 926.737 1143.25 927.3 1136.5C927.903 1129.19 927.088 1121.82 924.9 1114.82C922.899 1107.8 919.554 1101.24 915.05 1095.49C910.851 1090.18 905.61 1085.78 899.65 1082.57C893.776 1079.38 887.31 1077.42 880.65 1076.82C866.575 1075.75 852.602 1079.93 841.42 1088.54C836.172 1092.7 831.832 1097.89 828.67 1103.79C816.76 1123.13 791.23 1125.79 790.59 1132.69C789.973 1139.97 790.778 1147.29 792.96 1154.26C794.975 1161.32 798.333 1167.92 802.85 1173.7C807.18 1179.18 828.92 1173.07 850.55 1176.99C856.452 1180.11 862.905 1182.06 869.55 1182.71C876.532 1183.39 883.579 1182.68 890.28 1180.6ZM899 1209.68C887.946 1213.09 876.336 1214.33 864.81 1213.33C853.994 1212.39 843.473 1209.3 833.859 1204.26C824.245 1199.21 815.73 1192.31 808.81 1183.94C801.75 1175.5 769.29 1192.84 760.81 1163.94C752.33 1135.04 788.6 1131.77 789.81 1120.94C790.935 1110.24 794.221 1099.87 799.47 1090.48C804.795 1080.98 811.929 1072.61 820.47 1065.85C839.059 1051.55 862.272 1044.61 885.66 1046.37C896.51 1047.32 907.066 1050.4 916.73 1055.42C926.278 1060.41 934.72 1067.27 941.55 1075.6C948.675 1084.37 953.963 1094.48 957.1 1105.33C962.028 1121.17 962.035 1138.14 957.119 1153.98C952.204 1169.83 942.598 1183.81 929.57 1194.08C920.477 1201.2 910.098 1206.49 899 1209.68Z" fill="#1D58FF"/>
<path d="M1156.54 1101.03C1163.28 1099.08 1169.57 1095.82 1175.04 1091.42C1180.24 1087.22 1184.57 1082.05 1187.79 1076.2C1191.03 1070.25 1193 1063.68 1193.56 1056.93C1194.16 1049.62 1193.35 1042.26 1191.17 1035.25C1189.17 1028.23 1185.82 1021.66 1181.31 1015.92C1177.11 1010.61 1171.88 1006.22 1165.92 1003C1160.05 999.807 1153.58 997.85 1146.92 997.25C1132.85 996.184 1118.87 1000.36 1107.69 1008.97C1102.45 1013.13 1098.11 1018.32 1094.94 1024.22C1083.03 1043.56 1057.5 1046.22 1056.87 1053.12C1056.25 1060.4 1057.05 1067.72 1059.23 1074.69C1061.25 1081.74 1064.61 1088.34 1069.12 1094.13C1073.46 1099.61 1095.19 1093.5 1116.82 1097.42C1122.72 1100.54 1129.18 1102.48 1135.82 1103.14C1142.8 1103.82 1149.84 1103.1 1156.54 1101.03ZM1165.23 1130.09C1154.18 1133.5 1142.57 1134.74 1131.04 1133.74C1120.21 1132.8 1109.68 1129.72 1100.06 1124.68C1090.43 1119.63 1081.91 1112.72 1074.98 1104.35C1067.92 1095.91 1035.46 1113.25 1026.98 1084.3C1018.5 1055.35 1054.77 1052.13 1055.98 1041.3C1057.11 1030.6 1060.4 1020.24 1065.64 1010.85C1070.97 1001.36 1078.1 993.004 1086.64 986.25C1105.23 971.941 1128.45 965 1151.84 966.76C1162.69 967.697 1173.25 970.755 1182.92 975.76C1192.46 980.742 1200.9 987.595 1207.73 995.91C1214.86 1004.67 1220.15 1014.79 1223.28 1025.64C1228.22 1041.48 1228.23 1058.45 1223.32 1074.29C1218.4 1090.14 1208.79 1104.12 1195.76 1114.39C1186.69 1121.54 1176.32 1126.87 1165.23 1130.09Z" fill="#1D58FF"/>
<path d="M1422.81 1021.45C1429.59 1019.51 1435.92 1016.23 1441.41 1011.81C1446.61 1007.61 1450.95 1002.44 1454.17 996.58C1457.41 990.628 1459.38 984.065 1459.94 977.31C1460.54 970 1459.73 962.642 1457.54 955.64C1455.54 948.62 1452.19 942.055 1447.69 936.31C1443.49 930.999 1438.25 926.602 1432.29 923.39C1426.42 920.191 1419.95 918.234 1413.29 917.64C1399.22 916.572 1385.24 920.746 1374.06 929.36C1368.81 933.516 1364.47 938.703 1361.31 944.6C1349.4 963.94 1323.87 966.6 1323.23 973.51C1322.61 980.786 1323.42 988.112 1325.6 995.08C1327.61 1002.13 1330.97 1008.73 1335.49 1014.51C1339.82 1020 1361.56 1013.88 1383.19 1017.8C1389.09 1020.93 1395.54 1022.88 1402.19 1023.53C1409.13 1024.21 1416.14 1023.5 1422.81 1021.45ZM1431.49 1050.51C1420.44 1053.92 1408.83 1055.16 1397.3 1054.16C1386.48 1053.22 1375.96 1050.13 1366.35 1045.09C1356.73 1040.04 1348.22 1033.14 1341.3 1024.77C1334.24 1016.33 1301.78 1033.67 1293.3 1004.77C1284.82 975.87 1321.09 972.6 1322.3 961.77C1323.43 951.067 1326.71 940.705 1331.96 931.31C1337.29 921.808 1344.42 913.44 1352.96 906.68C1371.55 892.374 1394.76 885.437 1418.15 887.2C1429 888.136 1439.55 891.194 1449.22 896.2C1458.77 901.187 1467.21 908.051 1474.04 916.38C1481.17 925.144 1486.45 935.256 1489.58 946.11C1494.52 961.949 1494.53 978.913 1489.62 994.759C1484.7 1010.6 1475.09 1024.59 1462.06 1034.85C1452.97 1041.99 1442.59 1047.3 1431.49 1050.51Z" fill="#1D58FF"/>
<path d="M282.91 1574.58C289.651 1572.64 295.936 1569.37 301.4 1564.97C306.6 1560.77 310.934 1555.6 314.16 1549.75C317.402 1543.8 319.367 1537.23 319.93 1530.48C320.521 1523.21 319.72 1515.88 317.57 1508.91C315.563 1501.89 312.215 1495.33 307.71 1489.58C303.508 1484.27 298.268 1479.88 292.31 1476.66C286.434 1473.47 279.969 1471.51 273.31 1470.91C259.222 1469.85 245.241 1474.05 234.06 1482.68C228.815 1486.84 224.476 1492.02 221.31 1497.92C209.4 1517.26 183.87 1519.92 183.23 1526.82C182.618 1534.1 183.422 1541.42 185.6 1548.39C187.621 1555.44 190.978 1562.04 195.49 1567.83C199.83 1573.31 221.56 1567.2 243.19 1571.12C249.091 1574.25 255.545 1576.19 262.19 1576.85C269.179 1577.48 276.223 1576.71 282.91 1574.58ZM291.59 1603.64C280.536 1607.05 268.926 1608.29 257.4 1607.29C246.583 1606.35 236.06 1603.27 226.446 1598.22C216.831 1593.18 208.317 1586.27 201.4 1577.9C194.34 1569.46 161.87 1586.81 153.4 1557.9C144.93 1528.99 181.19 1525.72 182.4 1514.9C183.522 1504.2 186.808 1493.83 192.06 1484.44C197.387 1474.95 204.521 1466.59 213.06 1459.84C231.66 1445.54 254.873 1438.59 278.27 1440.32C289.115 1441.26 299.671 1444.32 309.34 1449.32C318.887 1454.31 327.328 1461.18 334.16 1469.51C341.286 1478.27 346.572 1488.39 349.7 1499.24C354.634 1515.08 354.644 1532.04 349.728 1547.88C344.812 1563.72 335.202 1577.7 322.17 1587.96C313.086 1595.12 302.702 1600.46 291.59 1603.68V1603.64Z" fill="#1D58FF"/>
<path d="M549.17 1495.01C555.91 1493.06 562.195 1489.8 567.66 1485.4C572.861 1481.2 577.195 1476.03 580.42 1470.18C583.661 1464.23 585.626 1457.66 586.19 1450.91C586.792 1443.6 585.98 1436.24 583.8 1429.23C581.795 1422.21 578.447 1415.64 573.94 1409.9C569.741 1404.59 564.5 1400.19 558.54 1396.98C552.666 1393.79 546.2 1391.83 539.54 1391.23C525.465 1390.16 511.493 1394.34 500.31 1402.95C495.067 1407.11 490.728 1412.3 487.56 1418.2C475.65 1437.54 450.12 1440.2 449.48 1447.1C448.868 1454.38 449.673 1461.7 451.85 1468.67C453.871 1475.72 457.228 1482.32 461.74 1488.1C466.08 1493.59 487.81 1487.48 509.44 1491.39C515.34 1494.52 521.794 1496.47 528.44 1497.12C535.422 1497.8 542.468 1497.08 549.17 1495.01ZM557.85 1524.07C546.796 1527.48 535.185 1528.72 523.66 1527.72C512.821 1526.8 502.274 1523.73 492.634 1518.68C482.995 1513.64 474.458 1506.73 467.52 1498.35C460.52 1489.91 428 1507.26 419.57 1478.35C411.14 1449.44 447.36 1446.17 448.57 1435.35C449.718 1424.64 453.032 1414.27 458.31 1404.87C463.638 1395.38 470.772 1387.02 479.31 1380.27C497.887 1365.91 521.117 1358.94 544.53 1360.68C555.38 1361.61 565.941 1364.67 575.61 1369.68C585.16 1374.66 593.603 1381.53 600.43 1389.86C607.552 1398.66 612.82 1408.81 615.92 1419.7C620.848 1435.54 620.855 1452.51 615.939 1468.35C611.024 1484.2 601.418 1498.18 588.39 1508.45C579.309 1515.57 568.94 1520.88 557.85 1524.07Z" fill="#1D58FF"/>
<path d="M815.44 1415.43C822.18 1413.49 828.466 1410.22 833.93 1405.82C839.13 1401.62 843.464 1396.45 846.69 1390.6C849.928 1384.65 851.892 1378.08 852.46 1371.33C853.057 1364.02 852.242 1356.66 850.06 1349.65C848.057 1342.63 844.708 1336.06 840.2 1330.32C836.004 1325.01 830.767 1320.61 824.81 1317.4C818.934 1314.21 812.468 1312.25 805.81 1311.65C791.734 1310.59 777.761 1314.76 766.58 1323.38C761.33 1327.53 756.99 1332.72 753.83 1338.62C741.92 1357.96 716.38 1360.62 715.75 1367.52C715.129 1374.8 715.931 1382.12 718.11 1389.09C720.13 1396.15 723.491 1402.75 728.01 1408.53C732.34 1414.01 754.08 1407.9 775.71 1411.82C781.611 1414.95 788.064 1416.89 794.71 1417.55C801.692 1418.23 808.74 1417.51 815.44 1415.43ZM824.12 1444.49C813.066 1447.9 801.456 1449.15 789.93 1448.15C779.104 1447.21 768.572 1444.13 758.949 1439.09C749.326 1434.04 740.804 1427.13 733.88 1418.75C726.82 1410.31 694.36 1427.66 685.88 1398.75C677.4 1369.84 713.67 1366.57 714.88 1355.75C716.008 1345.05 719.294 1334.69 724.54 1325.29C729.868 1315.8 737.002 1307.45 745.54 1300.7C764.129 1286.39 787.347 1279.45 810.74 1281.21C821.589 1282.15 832.149 1285.2 841.82 1290.21C851.366 1295.2 859.807 1302.06 866.64 1310.39C873.761 1319.16 879.046 1329.27 882.18 1340.12C887.118 1355.96 887.13 1372.93 882.216 1388.77C877.302 1404.62 867.693 1418.6 854.66 1428.87C845.579 1435.99 835.21 1441.3 824.12 1444.49Z" fill="#1D58FF"/>
<path d="M1081.7 1335.86C1088.44 1333.91 1094.73 1330.65 1100.19 1326.25C1105.4 1322.05 1109.73 1316.88 1112.95 1311.02C1116.2 1305.07 1118.17 1298.51 1118.73 1291.75C1119.32 1284.44 1118.51 1277.08 1116.33 1270.08C1114.33 1263.06 1110.98 1256.49 1106.47 1250.75C1102.27 1245.44 1097.04 1241.05 1091.08 1237.83C1085.21 1234.63 1078.74 1232.68 1072.08 1232.08C1058.01 1231.01 1044.03 1235.19 1032.85 1243.8C1027.61 1247.96 1023.27 1253.15 1020.1 1259.05C1008.19 1278.39 982.66 1281.05 982.02 1287.95C981.408 1295.23 982.213 1302.55 984.39 1309.52C986.411 1316.57 989.768 1323.17 994.28 1328.95C998.62 1334.44 1020.35 1328.33 1041.98 1332.24C1047.88 1335.37 1054.33 1337.32 1060.98 1337.97C1067.96 1338.65 1075 1337.93 1081.7 1335.86ZM1090.38 1364.92C1079.33 1368.33 1067.72 1369.57 1056.19 1368.57C1045.35 1367.65 1034.8 1364.58 1025.16 1359.53C1015.53 1354.49 1006.99 1347.58 1000.05 1339.2C993.05 1330.76 960.53 1348.11 952.05 1319.2C943.57 1290.29 979.84 1287.02 981.05 1276.2C982.198 1265.49 985.512 1255.12 990.79 1245.72C996.118 1236.23 1003.25 1227.87 1011.79 1221.12C1030.37 1206.81 1053.59 1199.87 1076.98 1201.63C1087.83 1202.57 1098.39 1205.63 1108.06 1210.63C1117.61 1215.62 1126.05 1222.49 1132.88 1230.82C1140 1239.62 1145.27 1249.77 1148.37 1260.66C1153.3 1276.5 1153.3 1293.47 1148.39 1309.31C1143.47 1325.16 1133.87 1339.14 1120.84 1349.41C1111.76 1356.51 1101.39 1361.8 1090.3 1364.98L1090.38 1364.92Z" fill="#1D58FF"/>
<path d="M1348 1256.28C1354.78 1254.34 1361.1 1251.06 1366.6 1246.64C1371.8 1242.44 1376.13 1237.27 1379.36 1231.42C1382.6 1225.46 1384.56 1218.9 1385.13 1212.15C1385.73 1204.84 1384.91 1197.48 1382.73 1190.47C1380.73 1183.45 1377.38 1176.88 1372.87 1171.14C1368.68 1165.83 1363.44 1161.43 1357.48 1158.22C1351.61 1155.03 1345.14 1153.07 1338.48 1152.47C1324.41 1151.4 1310.43 1155.58 1299.25 1164.19C1294 1168.35 1289.66 1173.54 1286.5 1179.44C1274.59 1198.78 1249.05 1201.44 1248.42 1208.34C1247.8 1215.62 1248.6 1222.94 1250.78 1229.91C1252.8 1236.97 1256.16 1243.57 1260.68 1249.35C1265.01 1254.83 1286.75 1248.72 1308.38 1252.64C1314.28 1255.76 1320.74 1257.71 1327.38 1258.36C1334.32 1259.04 1341.33 1258.33 1348 1256.28ZM1356.68 1285.34C1345.63 1288.75 1334.02 1289.99 1322.49 1289C1311.67 1288.06 1301.15 1284.97 1291.54 1279.93C1281.92 1274.88 1273.41 1267.97 1266.49 1259.6C1259.43 1251.16 1226.97 1268.51 1218.49 1239.6C1210.01 1210.69 1246.28 1207.42 1247.49 1196.6C1248.62 1185.9 1251.9 1175.54 1257.15 1166.14C1262.48 1156.65 1269.61 1148.29 1278.15 1141.54C1296.74 1127.24 1319.96 1120.3 1343.35 1122.06C1354.2 1123 1364.76 1126.05 1374.43 1131.06C1383.97 1136.05 1392.41 1142.92 1399.24 1151.24C1406.37 1160 1411.66 1170.12 1414.79 1180.97C1419.73 1196.81 1419.74 1213.78 1414.83 1229.62C1409.91 1245.47 1400.3 1259.45 1387.27 1269.72C1378.16 1276.85 1367.77 1282.15 1356.65 1285.34H1356.68Z" fill="#1D58FF"/>
<path d="M1614.23 1176.68C1621.01 1174.74 1627.34 1171.46 1632.83 1167.04C1638.03 1162.84 1642.37 1157.67 1645.59 1151.81C1648.83 1145.86 1650.8 1139.29 1651.36 1132.54C1651.96 1125.23 1651.15 1117.87 1648.97 1110.86C1646.97 1103.84 1643.62 1097.28 1639.11 1091.54C1634.91 1086.23 1629.67 1081.83 1623.71 1078.61C1617.84 1075.42 1611.37 1073.47 1604.71 1072.87C1590.63 1071.8 1576.66 1075.97 1565.48 1084.59C1560.23 1088.74 1555.89 1093.93 1552.73 1099.83C1540.82 1119.17 1515.28 1121.83 1514.65 1128.74C1514.03 1136.02 1514.83 1143.34 1517.01 1150.31C1519.03 1157.36 1522.39 1163.96 1526.9 1169.74C1531.24 1175.23 1552.97 1169.11 1574.6 1173.03C1580.5 1176.16 1586.95 1178.1 1593.6 1178.76C1600.55 1179.44 1607.56 1178.73 1614.23 1176.68ZM1622.91 1205.74C1611.86 1209.15 1600.25 1210.39 1588.72 1209.39C1577.88 1208.47 1567.33 1205.4 1557.69 1200.35C1548.06 1195.31 1539.52 1188.4 1532.58 1180.02C1525.58 1171.58 1493.06 1188.93 1484.63 1160.02C1476.2 1131.11 1512.42 1127.84 1513.63 1117.02C1514.78 1106.3 1518.09 1095.93 1523.37 1086.54C1528.7 1077.05 1535.83 1068.69 1544.37 1061.94C1562.95 1047.63 1586.17 1040.69 1609.56 1042.45C1620.41 1043.39 1630.97 1046.44 1640.64 1051.45C1650.19 1056.44 1658.63 1063.3 1665.46 1071.63C1672.58 1080.43 1677.85 1090.58 1680.95 1101.47C1685.88 1117.31 1685.89 1134.27 1680.98 1150.12C1676.06 1165.96 1666.45 1179.94 1653.42 1190.21C1644.35 1197.31 1633.99 1202.59 1622.91 1205.77V1205.74Z" fill="#1D58FF"/>
<path d="M1006.86 1570.68C1013.6 1568.74 1019.89 1565.47 1025.35 1561.07C1030.55 1556.87 1034.89 1551.7 1038.11 1545.85C1041.35 1539.9 1043.32 1533.33 1043.88 1526.58C1044.48 1519.27 1043.66 1511.91 1041.48 1504.9C1039.48 1497.88 1036.13 1491.31 1031.62 1485.57C1027.42 1480.26 1022.19 1475.86 1016.23 1472.65C1010.35 1469.46 1003.89 1467.5 997.23 1466.9C983.148 1465.85 969.174 1470.05 958 1478.68C952.75 1482.83 948.41 1488.02 945.25 1493.92C933.34 1513.26 907.8 1515.92 907.17 1522.82C906.549 1530.1 907.351 1537.42 909.53 1544.39C911.548 1551.45 914.909 1558.05 919.43 1563.83C923.76 1569.31 945.5 1563.2 967.13 1567.12C973.031 1570.25 979.485 1572.19 986.13 1572.85C993.116 1573.51 1000.16 1572.77 1006.86 1570.68ZM1015.54 1599.74C1004.49 1603.15 992.876 1604.39 981.35 1603.39C970.533 1602.45 960.01 1599.37 950.396 1594.32C940.781 1589.28 932.267 1582.37 925.35 1574C918.29 1565.56 885.82 1582.91 877.35 1554C868.88 1525.09 905.14 1521.82 906.35 1511C907.473 1500.3 910.76 1489.93 916.01 1480.54C921.335 1471.04 928.47 1462.68 937.01 1455.92C955.595 1441.61 978.81 1434.67 1002.2 1436.43C1013.05 1437.37 1023.6 1440.42 1033.27 1445.43C1042.82 1450.42 1051.26 1457.28 1058.09 1465.61C1065.22 1474.37 1070.5 1484.49 1073.63 1495.34C1078.57 1511.18 1078.58 1528.15 1073.67 1543.99C1068.75 1559.84 1059.14 1573.82 1046.11 1584.09C1037.01 1591.24 1026.62 1596.56 1015.51 1599.77L1015.54 1599.74Z" fill="#1D58FF"/>
<path d="M1273.12 1491.11C1279.86 1489.17 1286.15 1485.9 1291.62 1481.5C1296.82 1477.3 1301.15 1472.13 1304.37 1466.28C1307.61 1460.33 1309.58 1453.76 1310.14 1447.01C1310.74 1439.7 1309.93 1432.34 1307.75 1425.33C1305.75 1418.31 1302.4 1411.74 1297.89 1406C1293.69 1400.69 1288.45 1396.3 1282.5 1393.08C1276.62 1389.89 1270.16 1387.94 1263.5 1387.33C1249.42 1386.26 1235.45 1390.44 1224.27 1399.06C1219.02 1403.22 1214.69 1408.4 1211.52 1414.3C1199.61 1433.64 1174.08 1436.3 1173.45 1443.2C1172.83 1450.48 1173.63 1457.8 1175.81 1464.77C1177.83 1471.82 1181.19 1478.42 1185.7 1484.21C1190.04 1489.69 1211.77 1483.58 1233.4 1487.5C1239.3 1490.62 1245.76 1492.57 1252.4 1493.22C1259.38 1493.9 1266.42 1493.19 1273.12 1491.11ZM1281.81 1520.17C1270.75 1523.58 1259.14 1524.82 1247.61 1523.82C1236.79 1522.88 1226.27 1519.79 1216.66 1514.75C1207.05 1509.7 1198.53 1502.8 1191.61 1494.43C1184.55 1485.99 1152.09 1503.34 1143.61 1474.43C1135.13 1445.52 1171.4 1442.25 1172.61 1431.43C1173.74 1420.73 1177.02 1410.37 1182.27 1400.97C1187.6 1391.48 1194.73 1383.12 1203.27 1376.37C1221.86 1362.06 1245.08 1355.13 1268.47 1356.89C1279.32 1357.82 1289.88 1360.88 1299.55 1365.89C1309.09 1370.87 1317.53 1377.73 1324.36 1386.04C1331.48 1394.81 1336.77 1404.92 1339.91 1415.77C1344.85 1431.61 1344.86 1448.58 1339.94 1464.42C1335.03 1480.27 1325.41 1494.25 1312.38 1504.52C1303.29 1511.68 1292.9 1517.01 1281.79 1520.23L1281.81 1520.17Z" fill="#1D58FF"/>
<path d="M1539.39 1411.53C1546.17 1409.59 1552.49 1406.31 1557.99 1401.89C1563.19 1397.69 1567.52 1392.52 1570.75 1386.67C1573.99 1380.72 1575.96 1374.15 1576.52 1367.4C1577.12 1360.09 1576.3 1352.73 1574.12 1345.72C1572.12 1338.7 1568.77 1332.13 1564.26 1326.39C1560.07 1321.08 1554.83 1316.68 1548.87 1313.47C1543 1310.28 1536.53 1308.32 1529.87 1307.72C1515.8 1306.65 1501.82 1310.83 1490.64 1319.44C1485.39 1323.6 1481.05 1328.79 1477.89 1334.69C1465.98 1354.03 1440.44 1356.69 1439.81 1363.59C1439.19 1370.87 1439.99 1378.19 1442.17 1385.16C1444.19 1392.22 1447.55 1398.82 1452.07 1404.6C1456.4 1410.08 1478.14 1403.97 1499.77 1407.89C1505.67 1411.01 1512.13 1412.96 1518.77 1413.61C1525.71 1414.29 1532.72 1413.58 1539.39 1411.53ZM1548.07 1440.59C1537.02 1444 1525.41 1445.24 1513.88 1444.24C1503.05 1443.31 1492.52 1440.23 1482.9 1435.18C1473.28 1430.14 1464.75 1423.23 1457.83 1414.85C1450.77 1406.41 1418.3 1423.76 1409.83 1394.85C1401.36 1365.94 1437.62 1362.67 1438.83 1351.85C1439.95 1341.15 1443.24 1330.78 1448.49 1321.39C1453.81 1311.89 1460.95 1303.52 1469.49 1296.77C1488.07 1282.46 1511.29 1275.52 1534.68 1277.28C1545.53 1278.22 1556.08 1281.27 1565.75 1286.28C1575.3 1291.27 1583.74 1298.13 1590.57 1306.46C1597.7 1315.22 1602.98 1325.34 1606.11 1336.19C1611.05 1352.03 1611.06 1369 1606.15 1384.84C1601.23 1400.69 1591.62 1414.67 1578.59 1424.94C1569.52 1432.07 1559.15 1437.38 1548.07 1440.59Z" fill="#1D58FF"/>
</g>
</g>
</g>
<path d="M787.05 807.16C796.194 804.448 804.713 799.959 812.12 793.95C819.139 788.201 824.971 781.139 829.29 773.16C833.651 765.031 836.26 756.079 836.95 746.88C837.696 736.943 836.525 726.955 833.5 717.46C830.737 707.945 826.152 699.057 820 691.29C814.258 684.094 807.113 678.14 799 673.79C790.982 669.511 782.176 666.908 773.12 666.14C753.999 664.83 735.068 670.62 719.95 682.4C712.871 688.109 707.02 695.191 702.75 703.22C686.86 729.57 652.1 733.46 651.3 742.91C650.572 752.808 651.778 762.753 654.85 772.19C657.651 781.753 662.265 790.689 668.44 798.51C674.44 805.93 703.76 797.51 733.29 802.63C741.343 806.824 750.138 809.406 759.18 810.23C768.582 811.043 778.051 810 787.05 807.16ZM799.05 846.57C784.1 851.272 768.383 853.048 752.76 851.8C738.026 850.645 723.67 846.566 710.53 839.801C697.39 833.037 685.73 823.721 676.23 812.4C666.62 801.11 622.64 824.83 610.91 785.59C599.18 746.35 648.38 741.7 649.91 726.86C651.308 712.274 655.681 698.129 662.76 685.3C669.922 672.331 679.577 660.905 691.17 651.68C716.329 632.136 747.795 622.526 779.58 624.68C794.369 625.867 808.781 629.944 822 636.68C835.008 643.392 846.523 652.669 855.85 663.95C865.587 675.782 872.841 689.454 877.18 704.15C884.005 725.613 884.154 748.642 877.606 770.191C871.058 791.74 858.122 810.793 840.51 824.83C828.241 834.684 814.178 842.067 799.1 846.57H799.05Z" fill="#1D58FF"/>
</g>
</svg>
